<svg width="728" height="90" viewBox="0 0 728 90" fill="none" xmlns="http://www.w3.org/2000/svg">
<g clip-path="url(#clip0_1_2)">
<rect width="728" height="90" fill="#1C006A"/>
<path d="M39.6864 63.4253C-46.8136 60.9253 7.68641 167.925 10.6864 177.425L455.186 98.9253C443.853 93.9253 420.286 79.8253 416.686 63.4253C412.186 42.9253 406.186 88.9253 360.186 63.4253C314.186 37.9253 274.186 63.4253 248.686 32.4253C223.186 1.42532 198.686 85.9253 158.686 32.4253C118.686 -21.0747 126.186 65.9253 39.6864 63.4253Z" fill="white" fill-opacity="0.1"/>
<path d="M77.6864 63.4253C-8.81359 60.9253 45.6864 167.925 48.6864 177.425L493.186 98.9253C481.853 93.9253 458.286 79.8253 454.686 63.4253C450.186 42.9253 444.186 88.9253 398.186 63.4253C352.186 37.9253 312.186 63.4253 286.686 32.4253C261.186 1.42532 236.686 85.9253 196.686 32.4253C156.686 -21.0747 164.186 65.9253 77.6864 63.4253Z" fill="#FAFF00" fill-opacity="0.1"/>
<path d="M107.686 63.4253C21.1864 60.9253 75.6864 167.925 78.6864 177.425L523.186 98.9253C511.853 93.9253 488.286 79.8253 484.686 63.4253C480.186 42.9253 474.186 88.9253 428.186 63.4253C382.186 37.9253 342.186 63.4253 316.686 32.4253C291.186 1.42532 266.686 85.9253 226.686 32.4253C186.686 -21.0747 194.186 65.9253 107.686 63.4253Z" fill="#2400FF" fill-opacity="0.1"/>
<path d="M39.9375 46.0156H34.0938L34.0625 42.7969H38.9688C39.8333 42.7969 40.5417 42.6875 41.0938 42.4688C41.6458 42.2396 42.0573 41.9115 42.3281 41.4844C42.6094 41.0469 42.75 40.5156 42.75 39.8906C42.75 39.1823 42.6146 38.6094 42.3438 38.1719C42.0833 37.7344 41.6719 37.4167 41.1094 37.2188C40.5573 37.0208 39.8438 36.9219 38.9688 36.9219H35.7188V56H31.0312V33.25H38.9688C40.2917 33.25 41.474 33.375 42.5156 33.625C43.5677 33.875 44.4583 34.2552 45.1875 34.7656C45.9167 35.276 46.474 35.9219 46.8594 36.7031C47.2448 37.474 47.4375 38.3906 47.4375 39.4531C47.4375 40.3906 47.224 41.2552 46.7969 42.0469C46.3802 42.8385 45.7188 43.4844 44.8125 43.9844C43.9167 44.4844 42.7448 44.7604 41.2969 44.8125L39.9375 46.0156ZM39.7344 56H32.8125L34.6406 52.3438H39.7344C40.5573 52.3438 41.2292 52.2135 41.75 51.9531C42.2708 51.6823 42.6562 51.3177 42.9062 50.8594C43.1562 50.401 43.2812 49.875 43.2812 49.2812C43.2812 48.6146 43.1667 48.0365 42.9375 47.5469C42.7188 47.0573 42.3646 46.6823 41.875 46.4219C41.3854 46.151 40.7396 46.0156 39.9375 46.0156H35.4219L35.4531 42.7969H41.0781L42.1562 44.0625C43.5417 44.0417 44.6562 44.2865 45.5 44.7969C46.3542 45.2969 46.974 45.9479 47.3594 46.75C47.7552 47.5521 47.9531 48.4115 47.9531 49.3281C47.9531 50.7865 47.6354 52.0156 47 53.0156C46.3646 54.0052 45.4323 54.75 44.2031 55.25C42.9844 55.75 41.4948 56 39.7344 56ZM58.9688 56.3125C57.6562 56.3125 56.4792 56.1042 55.4375 55.6875C54.3958 55.2604 53.5104 54.6719 52.7812 53.9219C52.0625 53.1719 51.5104 52.3021 51.125 51.3125C50.7396 50.3125 50.5469 49.25 50.5469 48.125V47.5C50.5469 46.2188 50.7292 45.0469 51.0938 43.9844C51.4583 42.9219 51.9792 42 52.6562 41.2188C53.3438 40.4375 54.1771 39.8385 55.1562 39.4219C56.1354 38.9948 57.2396 38.7812 58.4688 38.7812C59.6667 38.7812 60.7292 38.9792 61.6562 39.375C62.5833 39.7708 63.3594 40.3333 63.9844 41.0625C64.6198 41.7917 65.099 42.6667 65.4219 43.6875C65.7448 44.6979 65.9062 45.8229 65.9062 47.0625V48.9375H52.4688V45.9375H61.4844V45.5938C61.4844 44.9688 61.3698 44.4115 61.1406 43.9219C60.9219 43.4219 60.5885 43.026 60.1406 42.7344C59.6927 42.4427 59.1198 42.2969 58.4219 42.2969C57.8281 42.2969 57.3177 42.4271 56.8906 42.6875C56.4635 42.9479 56.1146 43.3125 55.8438 43.7812C55.5833 44.25 55.3854 44.8021 55.25 45.4375C55.125 46.0625 55.0625 46.75 55.0625 47.5V48.125C55.0625 48.8021 55.1562 49.4271 55.3438 50C55.5417 50.5729 55.8177 51.0677 56.1719 51.4844C56.5365 51.901 56.974 52.224 57.4844 52.4531C58.0052 52.6823 58.5938 52.7969 59.25 52.7969C60.0625 52.7969 60.8177 52.6406 61.5156 52.3281C62.224 52.0052 62.8333 51.5208 63.3438 50.875L65.5312 53.25C65.1771 53.7604 64.6927 54.25 64.0781 54.7188C63.474 55.1875 62.7448 55.5729 61.8906 55.875C61.0365 56.1667 60.0625 56.3125 58.9688 56.3125ZM73.2188 32V56H68.7031V32H73.2188ZM81.6875 39.0938V56H77.1719V39.0938H81.6875ZM76.8906 34.6875C76.8906 34.0312 77.1198 33.4896 77.5781 33.0625C78.0365 32.6354 78.651 32.4219 79.4219 32.4219C80.1823 32.4219 80.7917 32.6354 81.25 33.0625C81.7188 33.4896 81.9531 34.0312 81.9531 34.6875C81.9531 35.3438 81.7188 35.8854 81.25 36.3125C80.7917 36.7396 80.1823 36.9531 79.4219 36.9531C78.651 36.9531 78.0365 36.7396 77.5781 36.3125C77.1198 35.8854 76.8906 35.3438 76.8906 34.6875ZM102.516 47.8906H96.7188V44.2344H102.516C103.411 44.2344 104.141 44.0885 104.703 43.7969C105.266 43.4948 105.677 43.0781 105.938 42.5469C106.198 42.0156 106.328 41.4167 106.328 40.75C106.328 40.0729 106.198 39.4427 105.938 38.8594C105.677 38.276 105.266 37.8073 104.703 37.4531C104.141 37.099 103.411 36.9219 102.516 36.9219H98.3438V56H93.6562V33.25H102.516C104.297 33.25 105.823 33.5729 107.094 34.2188C108.375 34.8542 109.354 35.7344 110.031 36.8594C110.708 37.9844 111.047 39.2708 111.047 40.7188C111.047 42.1875 110.708 43.4583 110.031 44.5312C109.354 45.6042 108.375 46.4323 107.094 47.0156C105.823 47.599 104.297 47.8906 102.516 47.8906ZM122.938 52.1875V44.6562C122.938 44.1146 122.849 43.651 122.672 43.2656C122.495 42.8698 122.219 42.5625 121.844 42.3438C121.479 42.125 121.005 42.0156 120.422 42.0156C119.922 42.0156 119.49 42.1042 119.125 42.2812C118.76 42.4479 118.479 42.6927 118.281 43.0156C118.083 43.3281 117.984 43.6979 117.984 44.125H113.484C113.484 43.4062 113.651 42.724 113.984 42.0781C114.318 41.4323 114.802 40.8646 115.438 40.375C116.073 39.875 116.828 39.4844 117.703 39.2031C118.589 38.9219 119.578 38.7812 120.672 38.7812C121.984 38.7812 123.151 39 124.172 39.4375C125.193 39.875 125.995 40.5312 126.578 41.4062C127.172 42.2812 127.469 43.375 127.469 44.6875V51.9219C127.469 52.849 127.526 53.6094 127.641 54.2031C127.755 54.7865 127.922 55.2969 128.141 55.7344V56H123.594C123.375 55.5417 123.208 54.9688 123.094 54.2812C122.99 53.5833 122.938 52.8854 122.938 52.1875ZM123.531 45.7031L123.562 48.25H121.047C120.453 48.25 119.938 48.3177 119.5 48.4531C119.062 48.5885 118.703 48.7812 118.422 49.0312C118.141 49.2708 117.932 49.5521 117.797 49.875C117.672 50.1979 117.609 50.5521 117.609 50.9375C117.609 51.3229 117.698 51.6719 117.875 51.9844C118.052 52.2865 118.307 52.526 118.641 52.7031C118.974 52.8698 119.365 52.9531 119.812 52.9531C120.49 52.9531 121.078 52.8177 121.578 52.5469C122.078 52.276 122.464 51.9427 122.734 51.5469C123.016 51.151 123.161 50.776 123.172 50.4219L124.359 52.3281C124.193 52.7552 123.964 53.1979 123.672 53.6562C123.391 54.1146 123.031 54.5469 122.594 54.9531C122.156 55.349 121.63 55.6771 121.016 55.9375C120.401 56.1875 119.672 56.3125 118.828 56.3125C117.755 56.3125 116.781 56.099 115.906 55.6719C115.042 55.2344 114.354 54.6354 113.844 53.875C113.344 53.1042 113.094 52.2292 113.094 51.25C113.094 50.3646 113.26 49.5781 113.594 48.8906C113.927 48.2031 114.417 47.625 115.062 47.1562C115.719 46.6771 116.536 46.3177 117.516 46.0781C118.495 45.8281 119.63 45.7031 120.922 45.7031H123.531ZM135.438 31.9844V56H130.938V31.9844H135.438ZM146.094 39.0938L138.75 47.4688L134.812 51.4531L133.172 48.2031L136.297 44.2344L140.688 39.0938H146.094ZM141.422 56L136.422 48.1875L139.531 45.4688L146.609 56H141.422ZM155.5 56.3125C154.188 56.3125 153.01 56.1042 151.969 55.6875C150.927 55.2604 150.042 54.6719 149.312 53.9219C148.594 53.1719 148.042 52.3021 147.656 51.3125C147.271 50.3125 147.078 49.25 147.078 48.125V47.5C147.078 46.2188 147.26 45.0469 147.625 43.9844C147.99 42.9219 148.51 42 149.188 41.2188C149.875 40.4375 150.708 39.8385 151.688 39.4219C152.667 38.9948 153.771 38.7812 155 38.7812C156.198 38.7812 157.26 38.9792 158.188 39.375C159.115 39.7708 159.891 40.3333 160.516 41.0625C161.151 41.7917 161.63 42.6667 161.953 43.6875C162.276 44.6979 162.438 45.8229 162.438 47.0625V48.9375H149V45.9375H158.016V45.5938C158.016 44.9688 157.901 44.4115 157.672 43.9219C157.453 43.4219 157.12 43.026 156.672 42.7344C156.224 42.4427 155.651 42.2969 154.953 42.2969C154.359 42.2969 153.849 42.4271 153.422 42.6875C152.995 42.9479 152.646 43.3125 152.375 43.7812C152.115 44.25 151.917 44.8021 151.781 45.4375C151.656 46.0625 151.594 46.75 151.594 47.5V48.125C151.594 48.8021 151.688 49.4271 151.875 50C152.073 50.5729 152.349 51.0677 152.703 51.4844C153.068 51.901 153.505 52.224 154.016 52.4531C154.536 52.6823 155.125 52.7969 155.781 52.7969C156.594 52.7969 157.349 52.6406 158.047 52.3281C158.755 52.0052 159.365 51.5208 159.875 50.875L162.062 53.25C161.708 53.7604 161.224 54.25 160.609 54.7188C160.005 55.1875 159.276 55.5729 158.422 55.875C157.568 56.1667 156.594 56.3125 155.5 56.3125ZM173.281 39.0938V42.2812H163.438V39.0938H173.281ZM165.875 34.9219H170.375V50.9062C170.375 51.3958 170.438 51.7708 170.562 52.0312C170.698 52.2917 170.896 52.474 171.156 52.5781C171.417 52.6719 171.745 52.7188 172.141 52.7188C172.422 52.7188 172.672 52.7083 172.891 52.6875C173.12 52.6562 173.312 52.625 173.469 52.5938L173.484 55.9062C173.099 56.0312 172.682 56.1302 172.234 56.2031C171.786 56.276 171.292 56.3125 170.75 56.3125C169.76 56.3125 168.896 56.151 168.156 55.8281C167.427 55.4948 166.865 54.9635 166.469 54.2344C166.073 53.5052 165.875 52.5469 165.875 51.3594V34.9219ZM191.078 56H186.125L186.156 52.3438H191.078C192.307 52.3438 193.344 52.0677 194.188 51.5156C195.031 50.9531 195.667 50.1354 196.094 49.0625C196.531 47.9896 196.75 46.6927 196.75 45.1719V44.0625C196.75 42.8958 196.625 41.8698 196.375 40.9844C196.135 40.099 195.776 39.3542 195.297 38.75C194.818 38.1458 194.229 37.6927 193.531 37.3906C192.833 37.0781 192.031 36.9219 191.125 36.9219H186.031V33.25H191.125C192.646 33.25 194.036 33.5104 195.297 34.0312C196.568 34.5417 197.667 35.276 198.594 36.2344C199.521 37.1927 200.234 38.3385 200.734 39.6719C201.245 40.9948 201.5 42.4688 201.5 44.0938V45.1719C201.5 46.7865 201.245 48.2604 200.734 49.5938C200.234 50.9271 199.521 52.0729 198.594 53.0312C197.677 53.9792 196.578 54.7135 195.297 55.2344C194.026 55.7448 192.62 56 191.078 56ZM188.781 33.25V56H184.094V33.25H188.781ZM213.75 52.1875V44.6562C213.75 44.1146 213.661 43.651 213.484 43.2656C213.307 42.8698 213.031 42.5625 212.656 42.3438C212.292 42.125 211.818 42.0156 211.234 42.0156C210.734 42.0156 210.302 42.1042 209.938 42.2812C209.573 42.4479 209.292 42.6927 209.094 43.0156C208.896 43.3281 208.797 43.6979 208.797 44.125H204.297C204.297 43.4062 204.464 42.724 204.797 42.0781C205.13 41.4323 205.615 40.8646 206.25 40.375C206.885 39.875 207.641 39.4844 208.516 39.2031C209.401 38.9219 210.391 38.7812 211.484 38.7812C212.797 38.7812 213.964 39 214.984 39.4375C216.005 39.875 216.807 40.5312 217.391 41.4062C217.984 42.2812 218.281 43.375 218.281 44.6875V51.9219C218.281 52.849 218.339 53.6094 218.453 54.2031C218.568 54.7865 218.734 55.2969 218.953 55.7344V56H214.406C214.188 55.5417 214.021 54.9688 213.906 54.2812C213.802 53.5833 213.75 52.8854 213.75 52.1875ZM214.344 45.7031L214.375 48.25H211.859C211.266 48.25 210.75 48.3177 210.312 48.4531C209.875 48.5885 209.516 48.7812 209.234 49.0312C208.953 49.2708 208.745 49.5521 208.609 49.875C208.484 50.1979 208.422 50.5521 208.422 50.9375C208.422 51.3229 208.51 51.6719 208.688 51.9844C208.865 52.2865 209.12 52.526 209.453 52.7031C209.786 52.8698 210.177 52.9531 210.625 52.9531C211.302 52.9531 211.891 52.8177 212.391 52.5469C212.891 52.276 213.276 51.9427 213.547 51.5469C213.828 51.151 213.974 50.776 213.984 50.4219L215.172 52.3281C215.005 52.7552 214.776 53.1979 214.484 53.6562C214.203 54.1146 213.844 54.5469 213.406 54.9531C212.969 55.349 212.443 55.6771 211.828 55.9375C211.214 56.1875 210.484 56.3125 209.641 56.3125C208.568 56.3125 207.594 56.099 206.719 55.6719C205.854 55.2344 205.167 54.6354 204.656 53.875C204.156 53.1042 203.906 52.2292 203.906 51.25C203.906 50.3646 204.073 49.5781 204.406 48.8906C204.74 48.2031 205.229 47.625 205.875 47.1562C206.531 46.6771 207.349 46.3177 208.328 46.0781C209.307 45.8281 210.443 45.7031 211.734 45.7031H214.344ZM230.031 39.0938V42.2812H220.188V39.0938H230.031ZM222.625 34.9219H227.125V50.9062C227.125 51.3958 227.188 51.7708 227.312 52.0312C227.448 52.2917 227.646 52.474 227.906 52.5781C228.167 52.6719 228.495 52.7188 228.891 52.7188C229.172 52.7188 229.422 52.7083 229.641 52.6875C229.87 52.6562 230.062 52.625 230.219 52.5938L230.234 55.9062C229.849 56.0312 229.432 56.1302 228.984 56.2031C228.536 56.276 228.042 56.3125 227.5 56.3125C226.51 56.3125 225.646 56.151 224.906 55.8281C224.177 55.4948 223.615 54.9635 223.219 54.2344C222.823 53.5052 222.625 52.5469 222.625 51.3594V34.9219ZM241.719 52.1875V44.6562C241.719 44.1146 241.63 43.651 241.453 43.2656C241.276 42.8698 241 42.5625 240.625 42.3438C240.26 42.125 239.786 42.0156 239.203 42.0156C238.703 42.0156 238.271 42.1042 237.906 42.2812C237.542 42.4479 237.26 42.6927 237.062 43.0156C236.865 43.3281 236.766 43.6979 236.766 44.125H232.266C232.266 43.4062 232.432 42.724 232.766 42.0781C233.099 41.4323 233.583 40.8646 234.219 40.375C234.854 39.875 235.609 39.4844 236.484 39.2031C237.37 38.9219 238.359 38.7812 239.453 38.7812C240.766 38.7812 241.932 39 242.953 39.4375C243.974 39.875 244.776 40.5312 245.359 41.4062C245.953 42.2812 246.25 43.375 246.25 44.6875V51.9219C246.25 52.849 246.307 53.6094 246.422 54.2031C246.536 54.7865 246.703 55.2969 246.922 55.7344V56H242.375C242.156 55.5417 241.99 54.9688 241.875 54.2812C241.771 53.5833 241.719 52.8854 241.719 52.1875ZM242.312 45.7031L242.344 48.25H239.828C239.234 48.25 238.719 48.3177 238.281 48.4531C237.844 48.5885 237.484 48.7812 237.203 49.0312C236.922 49.2708 236.714 49.5521 236.578 49.875C236.453 50.1979 236.391 50.5521 236.391 50.9375C236.391 51.3229 236.479 51.6719 236.656 51.9844C236.833 52.2865 237.089 52.526 237.422 52.7031C237.755 52.8698 238.146 52.9531 238.594 52.9531C239.271 52.9531 239.859 52.8177 240.359 52.5469C240.859 52.276 241.245 51.9427 241.516 51.5469C241.797 51.151 241.943 50.776 241.953 50.4219L243.141 52.3281C242.974 52.7552 242.745 53.1979 242.453 53.6562C242.172 54.1146 241.812 54.5469 241.375 54.9531C240.938 55.349 240.411 55.6771 239.797 55.9375C239.182 56.1875 238.453 56.3125 237.609 56.3125C236.536 56.3125 235.562 56.099 234.688 55.6719C233.823 55.2344 233.135 54.6354 232.625 53.875C232.125 53.1042 231.875 52.2292 231.875 51.25C231.875 50.3646 232.042 49.5781 232.375 48.8906C232.708 48.2031 233.198 47.625 233.844 47.1562C234.5 46.6771 235.318 46.3177 236.297 46.0781C237.276 45.8281 238.411 45.7031 239.703 45.7031H242.312ZM260.109 33.25H264.078L269.922 49.9531L275.766 33.25H279.734L271.516 56H268.328L260.109 33.25ZM257.969 33.25H261.922L262.641 49.5312V56H257.969V33.25ZM277.922 33.25H281.891V56H277.203V49.5312L277.922 33.25ZM295.719 51.9531V39.0938H300.219V56H295.984L295.719 51.9531ZM296.219 48.4844L297.547 48.4531C297.547 49.5781 297.417 50.625 297.156 51.5938C296.896 52.5521 296.505 53.3854 295.984 54.0938C295.464 54.7917 294.807 55.3385 294.016 55.7344C293.224 56.1198 292.292 56.3125 291.219 56.3125C290.396 56.3125 289.635 56.1979 288.938 55.9688C288.25 55.7292 287.656 55.3594 287.156 54.8594C286.667 54.349 286.281 53.6979 286 52.9062C285.729 52.1042 285.594 51.1406 285.594 50.0156V39.0938H290.094V50.0469C290.094 50.5469 290.151 50.9688 290.266 51.3125C290.391 51.6562 290.562 51.9375 290.781 52.1562C291 52.375 291.255 52.5312 291.547 52.625C291.849 52.7188 292.182 52.7656 292.547 52.7656C293.474 52.7656 294.203 52.5781 294.734 52.2031C295.276 51.8281 295.656 51.3177 295.875 50.6719C296.104 50.0156 296.219 49.2865 296.219 48.4844ZM308.156 42.7812V56H303.656V39.0938H307.891L308.156 42.7812ZM313.25 38.9844L313.172 43.1562C312.953 43.125 312.688 43.099 312.375 43.0781C312.073 43.0469 311.797 43.0312 311.547 43.0312C310.911 43.0312 310.359 43.1146 309.891 43.2812C309.432 43.4375 309.047 43.6719 308.734 43.9844C308.432 44.2969 308.203 44.6771 308.047 45.125C307.901 45.5729 307.818 46.0833 307.797 46.6562L306.891 46.375C306.891 45.2812 307 44.276 307.219 43.3594C307.438 42.4323 307.755 41.625 308.172 40.9375C308.599 40.25 309.12 39.7188 309.734 39.3438C310.349 38.9688 311.052 38.7812 311.844 38.7812C312.094 38.7812 312.349 38.8021 312.609 38.8438C312.87 38.875 313.083 38.9219 313.25 38.9844ZM323.969 52.1875V44.6562C323.969 44.1146 323.88 43.651 323.703 43.2656C323.526 42.8698 323.25 42.5625 322.875 42.3438C322.51 42.125 322.036 42.0156 321.453 42.0156C320.953 42.0156 320.521 42.1042 320.156 42.2812C319.792 42.4479 319.51 42.6927 319.312 43.0156C319.115 43.3281 319.016 43.6979 319.016 44.125H314.516C314.516 43.4062 314.682 42.724 315.016 42.0781C315.349 41.4323 315.833 40.8646 316.469 40.375C317.104 39.875 317.859 39.4844 318.734 39.2031C319.62 38.9219 320.609 38.7812 321.703 38.7812C323.016 38.7812 324.182 39 325.203 39.4375C326.224 39.875 327.026 40.5312 327.609 41.4062C328.203 42.2812 328.5 43.375 328.5 44.6875V51.9219C328.5 52.849 328.557 53.6094 328.672 54.2031C328.786 54.7865 328.953 55.2969 329.172 55.7344V56H324.625C324.406 55.5417 324.24 54.9688 324.125 54.2812C324.021 53.5833 323.969 52.8854 323.969 52.1875ZM324.562 45.7031L324.594 48.25H322.078C321.484 48.25 320.969 48.3177 320.531 48.4531C320.094 48.5885 319.734 48.7812 319.453 49.0312C319.172 49.2708 318.964 49.5521 318.828 49.875C318.703 50.1979 318.641 50.5521 318.641 50.9375C318.641 51.3229 318.729 51.6719 318.906 51.9844C319.083 52.2865 319.339 52.526 319.672 52.7031C320.005 52.8698 320.396 52.9531 320.844 52.9531C321.521 52.9531 322.109 52.8177 322.609 52.5469C323.109 52.276 323.495 51.9427 323.766 51.5469C324.047 51.151 324.193 50.776 324.203 50.4219L325.391 52.3281C325.224 52.7552 324.995 53.1979 324.703 53.6562C324.422 54.1146 324.062 54.5469 323.625 54.9531C323.188 55.349 322.661 55.6771 322.047 55.9375C321.432 56.1875 320.703 56.3125 319.859 56.3125C318.786 56.3125 317.812 56.099 316.938 55.6719C316.073 55.2344 315.385 54.6354 314.875 53.875C314.375 53.1042 314.125 52.2292 314.125 51.25C314.125 50.3646 314.292 49.5781 314.625 48.8906C314.958 48.2031 315.448 47.625 316.094 47.1562C316.75 46.6771 317.568 46.3177 318.547 46.0781C319.526 45.8281 320.661 45.7031 321.953 45.7031H324.562ZM336.359 32V56H331.859V32H336.359ZM335.719 46.9531H334.484C334.495 45.776 334.651 44.6927 334.953 43.7031C335.255 42.7031 335.688 41.8385 336.25 41.1094C336.812 40.3698 337.484 39.7969 338.266 39.3906C339.057 38.9844 339.932 38.7812 340.891 38.7812C341.724 38.7812 342.479 38.901 343.156 39.1406C343.844 39.3698 344.432 39.7448 344.922 40.2656C345.422 40.776 345.807 41.4479 346.078 42.2812C346.349 43.1146 346.484 44.125 346.484 45.3125V56H341.953V45.2812C341.953 44.5312 341.844 43.9427 341.625 43.5156C341.417 43.0781 341.109 42.7708 340.703 42.5938C340.307 42.4062 339.818 42.3125 339.234 42.3125C338.589 42.3125 338.036 42.4323 337.578 42.6719C337.13 42.9115 336.771 43.2448 336.5 43.6719C336.229 44.0885 336.031 44.5781 335.906 45.1406C335.781 45.7031 335.719 46.3073 335.719 46.9531ZM365.141 56H360.188L360.219 52.3438H365.141C366.37 52.3438 367.406 52.0677 368.25 51.5156C369.094 50.9531 369.729 50.1354 370.156 49.0625C370.594 47.9896 370.812 46.6927 370.812 45.1719V44.0625C370.812 42.8958 370.688 41.8698 370.438 40.9844C370.198 40.099 369.839 39.3542 369.359 38.75C368.88 38.1458 368.292 37.6927 367.594 37.3906C366.896 37.0781 366.094 36.9219 365.188 36.9219H360.094V33.25H365.188C366.708 33.25 368.099 33.5104 369.359 34.0312C370.63 34.5417 371.729 35.276 372.656 36.2344C373.583 37.1927 374.297 38.3385 374.797 39.6719C375.307 40.9948 375.562 42.4688 375.562 44.0938V45.1719C375.562 46.7865 375.307 48.2604 374.797 49.5938C374.297 50.9271 373.583 52.0729 372.656 53.0312C371.74 53.9792 370.641 54.7135 369.359 55.2344C368.089 55.7448 366.682 56 365.141 56ZM362.844 33.25V56H358.156V33.25H362.844ZM383.438 39.0938V56H378.922V39.0938H383.438ZM378.641 34.6875C378.641 34.0312 378.87 33.4896 379.328 33.0625C379.786 32.6354 380.401 32.4219 381.172 32.4219C381.932 32.4219 382.542 32.6354 383 33.0625C383.469 33.4896 383.703 34.0312 383.703 34.6875C383.703 35.3438 383.469 35.8854 383 36.3125C382.542 36.7396 381.932 36.9531 381.172 36.9531C380.401 36.9531 379.786 36.7396 379.328 36.3125C378.87 35.8854 378.641 35.3438 378.641 34.6875ZM403.609 51.25L408.969 33.25H414.188L406.266 56H402.828L403.609 51.25ZM398.672 33.25L404.016 51.25L404.828 56H401.359L393.484 33.25H398.672ZM420.781 39.0938V56H416.266V39.0938H420.781ZM415.984 34.6875C415.984 34.0312 416.214 33.4896 416.672 33.0625C417.13 32.6354 417.745 32.4219 418.516 32.4219C419.276 32.4219 419.885 32.6354 420.344 33.0625C420.812 33.4896 421.047 34.0312 421.047 34.6875C421.047 35.3438 420.812 35.8854 420.344 36.3125C419.885 36.7396 419.276 36.9531 418.516 36.9531C417.745 36.9531 417.13 36.7396 416.672 36.3125C416.214 35.8854 415.984 35.3438 415.984 34.6875ZM428.125 39.0938L430.922 44.2344L433.797 39.0938H438.594L433.812 47.3594L438.812 56H434L430.953 50.5625L427.906 56H423.094L428.094 47.3594L423.312 39.0938H428.125ZM445.531 39.0938V56H441.016V39.0938H445.531ZM440.734 34.6875C440.734 34.0312 440.964 33.4896 441.422 33.0625C441.88 32.6354 442.495 32.4219 443.266 32.4219C444.026 32.4219 444.635 32.6354 445.094 33.0625C445.562 33.4896 445.797 34.0312 445.797 34.6875C445.797 35.3438 445.562 35.8854 445.094 36.3125C444.635 36.7396 444.026 36.9531 443.266 36.9531C442.495 36.9531 441.88 36.7396 441.422 36.3125C440.964 35.8854 440.734 35.3438 440.734 34.6875ZM454 32V56H449.484V32H454ZM457 47.7188V47.3906C457 46.151 457.177 45.0104 457.531 43.9688C457.885 42.9167 458.401 42.0052 459.078 41.2344C459.755 40.4635 460.589 39.8646 461.578 39.4375C462.568 39 463.703 38.7812 464.984 38.7812C466.266 38.7812 467.406 39 468.406 39.4375C469.406 39.8646 470.245 40.4635 470.922 41.2344C471.609 42.0052 472.13 42.9167 472.484 43.9688C472.839 45.0104 473.016 46.151 473.016 47.3906V47.7188C473.016 48.9479 472.839 50.0885 472.484 51.1406C472.13 52.1823 471.609 53.0938 470.922 53.875C470.245 54.6458 469.411 55.2448 468.422 55.6719C467.432 56.099 466.297 56.3125 465.016 56.3125C463.734 56.3125 462.594 56.099 461.594 55.6719C460.604 55.2448 459.766 54.6458 459.078 53.875C458.401 53.0938 457.885 52.1823 457.531 51.1406C457.177 50.0885 457 48.9479 457 47.7188ZM461.5 47.3906V47.7188C461.5 48.4271 461.562 49.0885 461.688 49.7031C461.812 50.3177 462.01 50.8594 462.281 51.3281C462.562 51.7865 462.927 52.1458 463.375 52.4062C463.823 52.6667 464.37 52.7969 465.016 52.7969C465.641 52.7969 466.177 52.6667 466.625 52.4062C467.073 52.1458 467.432 51.7865 467.703 51.3281C467.974 50.8594 468.172 50.3177 468.297 49.7031C468.432 49.0885 468.5 48.4271 468.5 47.7188V47.3906C468.5 46.7031 468.432 46.0573 468.297 45.4531C468.172 44.8385 467.969 44.2969 467.688 43.8281C467.417 43.349 467.057 42.974 466.609 42.7031C466.161 42.4323 465.62 42.2969 464.984 42.2969C464.349 42.2969 463.807 42.4323 463.359 42.7031C462.922 42.974 462.562 43.349 462.281 43.8281C462.01 44.2969 461.812 44.8385 461.688 45.4531C461.562 46.0573 461.5 46.7031 461.5 47.3906ZM482.766 52.7969C483.318 52.7969 483.807 52.6927 484.234 52.4844C484.661 52.2656 484.995 51.9635 485.234 51.5781C485.484 51.1823 485.615 50.7188 485.625 50.1875H489.859C489.849 51.375 489.531 52.4323 488.906 53.3594C488.281 54.276 487.443 55 486.391 55.5312C485.339 56.0521 484.161 56.3125 482.859 56.3125C481.547 56.3125 480.401 56.0938 479.422 55.6562C478.453 55.2188 477.646 54.6146 477 53.8438C476.354 53.0625 475.87 52.1562 475.547 51.125C475.224 50.0833 475.062 48.9688 475.062 47.7812V47.3281C475.062 46.1302 475.224 45.0156 475.547 43.9844C475.87 42.9427 476.354 42.0365 477 41.2656C477.646 40.4844 478.453 39.875 479.422 39.4375C480.391 39 481.526 38.7812 482.828 38.7812C484.214 38.7812 485.427 39.0469 486.469 39.5781C487.521 40.1094 488.344 40.8698 488.938 41.8594C489.542 42.8385 489.849 44 489.859 45.3438H485.625C485.615 44.7812 485.495 44.2708 485.266 43.8125C485.047 43.3542 484.724 42.9896 484.297 42.7188C483.88 42.4375 483.365 42.2969 482.75 42.2969C482.094 42.2969 481.557 42.4375 481.141 42.7188C480.724 42.9896 480.401 43.3646 480.172 43.8438C479.943 44.3125 479.781 44.849 479.688 45.4531C479.604 46.0469 479.562 46.6719 479.562 47.3281V47.7812C479.562 48.4375 479.604 49.0677 479.688 49.6719C479.771 50.276 479.927 50.8125 480.156 51.2812C480.396 51.75 480.724 52.1198 481.141 52.3906C481.557 52.6615 482.099 52.7969 482.766 52.7969Z" fill="white"/>
<path d="M583 28C525 0.500008 678.5 -27 690 -29.5C691.5 -27.8333 705.3 -26.6 748.5 -35C791.7 -43.4 807.5 49.1667 810 96.5C735.5 105.833 576.4 121.5 536 109.5C485.5 94.5 599 80.5 564 68C529 55.5 641 55.5 583 28Z" fill="white"/>
<path d="M635.281 37.1406L629.094 56H624.109L632.562 33.25H635.734L635.281 37.1406ZM640.422 56L634.219 37.1406L633.719 33.25H636.922L645.422 56H640.422ZM640.141 47.5312V51.2031H628.125V47.5312H640.141ZM651.25 42.5938V56H646.734V39.0938H650.969L651.25 42.5938ZM650.625 46.9531H649.375C649.375 45.776 649.516 44.6927 649.797 43.7031C650.089 42.7031 650.51 41.8385 651.062 41.1094C651.625 40.3698 652.318 39.7969 653.141 39.3906C653.964 38.9844 654.917 38.7812 656 38.7812C656.75 38.7812 657.438 38.8958 658.062 39.125C658.688 39.3438 659.224 39.6927 659.672 40.1719C660.13 40.6406 660.484 41.2552 660.734 42.0156C660.984 42.7656 661.109 43.6667 661.109 44.7188V56H656.609V45.2188C656.609 44.4479 656.505 43.8542 656.297 43.4375C656.089 43.0208 655.792 42.7292 655.406 42.5625C655.031 42.3958 654.578 42.3125 654.047 42.3125C653.464 42.3125 652.953 42.4323 652.516 42.6719C652.089 42.9115 651.734 43.2448 651.453 43.6719C651.172 44.0885 650.964 44.5781 650.828 45.1406C650.693 45.7031 650.625 46.3073 650.625 46.9531ZM660.688 46.4375L659.078 46.6406C659.078 45.5365 659.214 44.5104 659.484 43.5625C659.766 42.6146 660.177 41.7812 660.719 41.0625C661.271 40.3438 661.953 39.7865 662.766 39.3906C663.578 38.9844 664.516 38.7812 665.578 38.7812C666.391 38.7812 667.13 38.901 667.797 39.1406C668.464 39.3698 669.031 39.7396 669.5 40.25C669.979 40.75 670.344 41.4062 670.594 42.2188C670.854 43.0312 670.984 44.026 670.984 45.2031V56H666.469V45.2031C666.469 44.4219 666.365 43.8281 666.156 43.4219C665.958 43.0052 665.667 42.7188 665.281 42.5625C664.906 42.3958 664.458 42.3125 663.938 42.3125C663.396 42.3125 662.922 42.4219 662.516 42.6406C662.109 42.849 661.771 43.1406 661.5 43.5156C661.229 43.8906 661.026 44.3281 660.891 44.8281C660.755 45.3177 660.688 45.8542 660.688 46.4375ZM683.594 52.1875V44.6562C683.594 44.1146 683.505 43.651 683.328 43.2656C683.151 42.8698 682.875 42.5625 682.5 42.3438C682.135 42.125 681.661 42.0156 681.078 42.0156C680.578 42.0156 680.146 42.1042 679.781 42.2812C679.417 42.4479 679.135 42.6927 678.938 43.0156C678.74 43.3281 678.641 43.6979 678.641 44.125H674.141C674.141 43.4062 674.307 42.724 674.641 42.0781C674.974 41.4323 675.458 40.8646 676.094 40.375C676.729 39.875 677.484 39.4844 678.359 39.2031C679.245 38.9219 680.234 38.7812 681.328 38.7812C682.641 38.7812 683.807 39 684.828 39.4375C685.849 39.875 686.651 40.5312 687.234 41.4062C687.828 42.2812 688.125 43.375 688.125 44.6875V51.9219C688.125 52.849 688.182 53.6094 688.297 54.2031C688.411 54.7865 688.578 55.2969 688.797 55.7344V56H684.25C684.031 55.5417 683.865 54.9688 683.75 54.2812C683.646 53.5833 683.594 52.8854 683.594 52.1875ZM684.188 45.7031L684.219 48.25H681.703C681.109 48.25 680.594 48.3177 680.156 48.4531C679.719 48.5885 679.359 48.7812 679.078 49.0312C678.797 49.2708 678.589 49.5521 678.453 49.875C678.328 50.1979 678.266 50.5521 678.266 50.9375C678.266 51.3229 678.354 51.6719 678.531 51.9844C678.708 52.2865 678.964 52.526 679.297 52.7031C679.63 52.8698 680.021 52.9531 680.469 52.9531C681.146 52.9531 681.734 52.8177 682.234 52.5469C682.734 52.276 683.12 51.9427 683.391 51.5469C683.672 51.151 683.818 50.776 683.828 50.4219L685.016 52.3281C684.849 52.7552 684.62 53.1979 684.328 53.6562C684.047 54.1146 683.688 54.5469 683.25 54.9531C682.812 55.349 682.286 55.6771 681.672 55.9375C681.057 56.1875 680.328 56.3125 679.484 56.3125C678.411 56.3125 677.438 56.099 676.562 55.6719C675.698 55.2344 675.01 54.6354 674.5 53.875C674 53.1042 673.75 52.2292 673.75 51.25C673.75 50.3646 673.917 49.5781 674.25 48.8906C674.583 48.2031 675.073 47.625 675.719 47.1562C676.375 46.6771 677.193 46.3177 678.172 46.0781C679.151 45.8281 680.286 45.7031 681.578 45.7031H684.188ZM696 42.7031V56H691.5V39.0938H695.719L696 42.7031ZM695.344 46.9531H694.125C694.125 45.7031 694.286 44.5781 694.609 43.5781C694.932 42.5677 695.385 41.7083 695.969 41C696.552 40.2812 697.245 39.7344 698.047 39.3594C698.859 38.974 699.766 38.7812 700.766 38.7812C701.557 38.7812 702.281 38.8958 702.938 39.125C703.594 39.3542 704.156 39.7188 704.625 40.2188C705.104 40.7188 705.469 41.3802 705.719 42.2031C705.979 43.026 706.109 44.0312 706.109 45.2188V56H701.578V45.2031C701.578 44.4531 701.474 43.8698 701.266 43.4531C701.057 43.0365 700.75 42.7448 700.344 42.5781C699.948 42.401 699.458 42.3125 698.875 42.3125C698.271 42.3125 697.745 42.4323 697.297 42.6719C696.859 42.9115 696.495 43.2448 696.203 43.6719C695.922 44.0885 695.708 44.5781 695.562 45.1406C695.417 45.7031 695.344 46.3073 695.344 46.9531Z" fill="#1C006A"/>
</g>
<defs>
<clipPath id="clip0_1_2">
<rect width="728" height="90" fill="white"/>
</clipPath>
</defs>
</svg>
