<svg viewBox="0 0 728 90" xmlns="http://www.w3.org/2000/svg" xmlns:xlink="http://www.w3.org/1999/xlink"><clipPath id="a"><path d="m620 0-35 90h-391.7l33.7-90z"/></clipPath><clipPath id="b"><path d="m728 0v90h-143l35-90z"/></clipPath><clipPath id="c"><path d="m578 136h300v250h-300z"/></clipPath><path d="m728 90h-534.7l33.7-90h501z" fill="#00aeef"/><path d="m585 90 35-90h108v90z" fill="#0566c6"/><g clip-path="url(#a)" fill="#009eed"><path d="m230.4 45.2a3.1 3.1 0 1 1 3.2-3.1 3.08 3.08 0 0 1 -3.2 3.1zm0-5.8a2.78 2.78 0 0 0 -2.8 2.7 2.71 2.71 0 0 0 2.8 2.7 2.78 2.78 0 0 0 2.8-2.7 2.71 2.71 0 0 0 -2.8-2.7z"/><path d="m279.3 9.3a1.84 1.84 0 0 1 -1.9-1.9 2 2 0 0 1 1.9-1.9 1.84 1.84 0 0 1 1.9 1.9 1.78 1.78 0 0 1 -1.9 1.9zm0-3.3a1.45 1.45 0 0 0 -1.5 1.4 1.5 1.5 0 0 0 3 0 1.39 1.39 0 0 0 -1.5-1.4z"/><path d="m228.7 59.2c-.1 0-.1 0-.2-.1l-3.1-2.8a.21.21 0 0 1 .3-.3l3.1 2.8a.19.19 0 0 1 0 .3c.1.1 0 .1-.1.1z"/><path d="m281.9 41.7c-.1 0-.1 0-.2-.1a.19.19 0 0 1 0-.3l3.1-2.8a.21.21 0 1 1 .3.3l-3.1 2.8c0 .1 0 .1-.1.1z"/><path d="m251.6 26.8c-.1 0-.1 0-.2-.1l-2-2a.19.19 0 0 1 0-.3l1.3-2.5c0-.1.1-.1.2-.1l2.8.4a.22.22 0 0 1 .2.2l.4 2.7c0 .1 0 .2-.1.2l-2.5 1.3c0 .2-.1.2-.1.2zm-1.7-2.2 1.8 1.7 2.2-1.1-.4-2.4-2.5-.4z"/><path d="m225 24.4c-.2 0-.3-.2-.2-.3s.7-2.3 1.7-2.8a.85.85 0 0 1 .7 0 4.23 4.23 0 0 1 1.3 1.1c1.2 1.2 2.1 1.9 3.1 1.2a9.68 9.68 0 0 0 1.9-2.2c.6-.9 1.1-1.6 1.8-1.8.1 0 .2 0 .3.2s0 .2-.2.3c-.5.1-1 .8-1.5 1.6a8.48 8.48 0 0 1 -2 2.3c-1.4 1.1-2.6-.2-3.7-1.2a9 9 0 0 0 -1.2-1c-.1-.1-.2-.1-.4 0-.7.3-1.3 1.9-1.5 2.5z"/><path d="m279.2 25.2c-.1 0-.2 0-.2-.1-.3-.5-1.1-.7-2-.9a13.1 13.1 0 0 1 -2.9-1.1c-1.5-1-.6-2.5.1-3.8a3.28 3.28 0 0 0 .6-1.4.37.37 0 0 0 -.1-.3c-.5-.5-2.2-.6-2.9-.6a.2.2 0 0 1 0-.4c.3 0 2.5 0 3.2.8a.62.62 0 0 1 .2.7 5.17 5.17 0 0 1 -.7 1.6c-.8 1.4-1.3 2.5-.2 3.2a11.81 11.81 0 0 0 2.7 1.1c1 .3 1.9.5 2.2 1.1.1.1 0 .2-.1.3.2-.2.1-.2.1-.2z"/><path d="m207.8 57.7-6.4-2.2a.19.19 0 0 1 -.1-.3l2.3-6.2a.19.19 0 0 1 .3-.1l6.3 2.2a.19.19 0 0 1 .1.3l-2.3 6.2c-.1 0-.1.1-.2.1zm-6.1-2.6 5.9 2.1 2.1-5.8-5.9-2.1z"/><path d="m200.4 33a.22.22 0 0 1 -.2-.2c-.4-3.7 2.9-6.7 3-6.9a.21.21 0 1 1 .3.3s-3.2 3-2.9 6.5c0 .2-.1.3-.2.3z"/><path d="m250.2 58.9h-.1a.37.37 0 0 1 -.1-.3s1.4-2.3 3.6-1.8l.3.1c1.9.5 3.3.9 4.6-.5a.21.21 0 0 1 .3.3c-1.4 1.6-3.1 1.2-5 .7l-.3-.1c-1.8-.5-3 1.5-3 1.6z"/><path d="m200 43.5c-.1 0-.2 0-.2-.1s-1.2-2-3-1.6l-.3.1c-1.9.5-3.6.9-5-.7a.21.21 0 1 1 .3-.3c1.3 1.4 2.7 1 4.6.5l.3-.1c2.1-.6 3.5 1.7 3.6 1.8s0 .2-.1.3-.1.1-.2.1z"/><circle cx="229.8" cy="6.8" r=".6"/><circle cx="213.5" cy="32.1" r=".6"/><circle cx="268.1" cy="29.5" r=".6"/><circle cx="239.6" cy="55" r=".6"/><circle cx="203.3" cy="13.1" r=".9"/><circle cx="274.6" cy="56.5" r=".9"/><circle cx="254.4" cy="7.4" r=".9"/><circle cx="249.3" cy="40.1" r=".9"/><path d="m268.1 45.4c-.1 0-.1 0-.2-.1s-.1-.1-.1-.2l.9-6c0-.1.1-.1.1-.2h.2l5 4.5c.1.1.1.1.1.2s-.1.1-.2.2zm1.1-5.8-.8 5.2 5.2-1.3z"/><path d="m217.8 16.4-5-1.3c-.1 0-.1-.1-.2-.2s0-.2.1-.2l4.2-3.8c.1-.1.2-.1.2 0s.1.1.1.2l.8 5c0 .1 0 .1-.1.2a.1.1 0 0 1 -.1.1zm-4.5-1.6 4.2 1.1-.7-4.3z"/><path d="m292.9 59.1a3.1 3.1 0 1 1 3.2-3.1 3.08 3.08 0 0 1 -3.2 3.1zm0-5.9a2.78 2.78 0 0 0 -2.8 2.7 2.71 2.71 0 0 0 2.8 2.7 2.7 2.7 0 1 0 0-5.4z"/><path d="m317.6 9.5a3.14 3.14 0 0 1 -3.2-3.1 3.2 3.2 0 0 1 6.4 0 3.14 3.14 0 0 1 -3.2 3.1zm0-5.8a2.78 2.78 0 0 0 -2.8 2.7 2.71 2.71 0 0 0 2.8 2.7 2.78 2.78 0 0 0 2.8-2.7 2.71 2.71 0 0 0 -2.8-2.7z"/><path d="m366.5 42.9a1.84 1.84 0 0 1 -1.9-1.9 1.9 1.9 0 0 1 1.9-1.9 1.9 1.9 0 0 1 0 3.8zm0-3.3a1.4 1.4 0 1 0 1.5 1.4 1.39 1.39 0 0 0 -1.5-1.4z"/><path d="m313.5 58.3c-.1 0-.1 0-.2-.1l-3.8-3.3a.21.21 0 1 1 .3-.3l3.8 3.3a.19.19 0 0 1 0 .3c.1.1 0 .1-.1.1z"/><path d="m343.5 55.6h-.1a.37.37 0 0 1 -.1-.3l2.1-3.6a.22.22 0 0 1 .4.2l-2.1 3.6a.35.35 0 0 1 -.2.1z"/><path d="m372.3 10c-.1 0-.1 0-.2-.1l-3.1-2.7a.21.21 0 1 1 .3-.3l3.1 2.8a.19.19 0 0 1 0 .3z"/><path d="m361.7 59.2c-.1 0-.1 0-.2-.1l-2.1-1.9a.37.37 0 0 1 -.1-.3l1.2-2.5c0-.1.1-.1.2-.1l2.8.3a.22.22 0 0 1 .2.2l.5 2.7c0 .1 0 .2-.1.2l-2.5 1.3zm-1.8-2.1 1.8 1.7 2.2-1.2-.5-2.4-2.5-.3z"/><path d="m338.1 26.5c-.1 0-.2 0-.2-.1l-1.3-2.5v-.3l2-2a.19.19 0 0 1 .3 0l2.5 1.3c.1 0 .1.1.1.2l-.4 2.7a.22.22 0 0 1 -.2.2zm-1-2.7 1.1 2.2 2.5-.4.4-2.4-2.2-1.1z"/><path d="m322.5 28.9c-.8-.2-1.3-.9-1.8-1.8a9.68 9.68 0 0 0 -1.9-2.2c-1-.8-1.9 0-3.1 1.2a5.83 5.83 0 0 1 -1.3 1.1.85.85 0 0 1 -.7 0c-1-.4-1.6-2.5-1.7-2.8 0-.1 0-.2.2-.3a.37.37 0 0 1 .3.1c.2.6.8 2.2 1.5 2.5a.3.3 0 0 0 .4 0 4.84 4.84 0 0 0 1.2-1c1-1 2.3-2.3 3.7-1.2a8.48 8.48 0 0 1 2 2.3 3.9 3.9 0 0 0 1.5 1.6c.1 0 .2.1.2.3-.3.1-.4.2-.5.2z"/><path d="m359.1 32h-.1a.2.2 0 0 1 0-.4c.6 0 2.4-.1 2.9-.6a.37.37 0 0 0 .1-.3 3.28 3.28 0 0 0 -.6-1.4c-.7-1.3-1.5-2.8-.1-3.8a7.91 7.91 0 0 1 2.9-1.1 4.68 4.68 0 0 0 2-.9.22.22 0 1 1 .4.2 3.3 3.3 0 0 1 -2.2 1.1 7 7 0 0 0 -2.7 1.1c-1 .7-.6 1.8.2 3.2a7.09 7.09 0 0 1 .7 1.6 1.45 1.45 0 0 1 -.2.7c-.8.6-2.7.6-3.3.6z"/><path d="m290.5 22.5c-.1 0-.1 0-.2-.1s-3.4-3.1-3-6.9a.2.2 0 1 1 .4 0c-.3 3.5 2.8 6.5 2.9 6.5a.19.19 0 0 1 0 .3c0 .2 0 .2-.1.2z"/><circle cx="317" cy="41.6" r=".6"/><circle cx="328" cy="57.4" r=".6"/><circle cx="283.7" cy="53" r=".6"/><circle cx="300.7" cy="16.4" r=".6"/><circle cx="355.3" cy="19" r=".6"/><circle cx="290.5" cy="35.3" r=".9"/><circle cx="341.6" cy="41" r=".9"/><circle cx="336.5" cy="8.4" r=".9"/><path d="m356.3 9.5c-.2 0-.2-.1-.2-.2l-.9-6c0-.1 0-.1.1-.2s.1-.1.2 0l5.9 1.5c.1 0 .1.1.2.2s0 .2-.1.2l-5 4.5zm-.7-5.9.8 5.2 4.3-3.9z"/><path d="m304.2 37.6c-.1 0-.1 0-.2-.1l-4.2-3.8c-.1-.1-.1-.1-.1-.2s.1-.1.2-.2l5-1.3h.2c.1 0 .1.1.1.2l-.8 5c.1.2 0 .3-.2.4.1-.1.1 0 0 0zm-3.7-3.9 3.5 3.2.7-4.3z"/><path d="m358.2 75.4a3.1 3.1 0 1 1 3.2-3.1 3.14 3.14 0 0 1 -3.2 3.1zm0-5.8a2.78 2.78 0 0 0 -2.8 2.7 2.71 2.71 0 0 0 2.8 2.7 2.7 2.7 0 1 0 0-5.4z"/><path d="m284.6 86.7a1.84 1.84 0 0 1 -1.9-1.9 1.9 1.9 0 0 1 1.9-1.9 1.84 1.84 0 0 1 1.9 1.9 1.9 1.9 0 0 1 -1.9 1.9zm0-3.3a1.4 1.4 0 1 0 1.5 1.4 1.45 1.45 0 0 0 -1.5-1.4z"/><path d="m341.4 71.3c-.1 0-.1 0-.2-.1l-3.8-3.3a.21.21 0 1 1 .3-.3l3.8 3.3a.19.19 0 0 1 0 .3.1.1 0 0 1 -.1.1z"/><path d="m305.5 74.3h-.1a.37.37 0 0 1 -.1-.3l2.1-3.6a.22.22 0 0 1 .4.2l-2.1 3.6c0 .1-.1.1-.2.1z"/><path d="m290.3 71.5-2.8-.3a.22.22 0 0 1 -.2-.2l-.5-2.7c0-.1 0-.2.1-.2l2.5-1.3h.3l2.1 1.9a.37.37 0 0 1 .1.3l-1.2 2.5c-.2-.1-.3 0-.4 0zm-2.6-.8 2.5.3 1.1-2.2-1.8-1.7-2.2 1.2z"/><circle cx="334.1" cy="84.2" r=".6"/><circle cx="323.1" cy="68.5" r=".6"/><circle cx="367.5" cy="75.2" r=".6"/><circle cx="360.6" cy="90.6" r=".9"/><circle cx="309.6" cy="84.8" r=".9"/><path d="m346.1 93.8c-.1 0-.1 0-.2-.1s-.1-.1-.1-.2l.8-5c0-.1.1-.1.1-.2h.2l4.2 3.8c.1.1.1.1.1.2s-.1.1-.2.2zm.9-4.8-.7 4.3 4.2-1.1z"/><path d="m246.3 86.9a3.1 3.1 0 1 1 3.2-3.1 3.14 3.14 0 0 1 -3.2 3.1zm0-5.8a2.78 2.78 0 0 0 -2.8 2.7 2.71 2.71 0 0 0 2.8 2.7 2.78 2.78 0 0 0 2.8-2.7 2.84 2.84 0 0 0 -2.8-2.7z"/><path d="m251.1 69.8c-.1 0-.1 0-.2-.1l-3.1-2.8a.21.21 0 1 1 .3-.3l3.1 2.8a.19.19 0 0 1 0 .3c.1.1 0 .1-.1.1z"/><path d="m191.7 87.4c-.1 0-.1 0-.2-.1a.19.19 0 0 1 0-.3l3.1-2.8a.21.21 0 1 1 .3.3l-3.1 2.8a.1.1 0 0 1 -.1.1z"/><path d="m273 77-6.4-2.2a.19.19 0 0 1 -.1-.3l2.3-6.2a.19.19 0 0 1 .3-.1l6.3 2.2a.19.19 0 0 1 .1.3l-2.3 6.2c0 .1-.1.1-.2.1zm-6-2.5 5.9 2.1 2.1-5.8-5.9-2.1z"/><path d="m218.2 69.6c-.1 0-.1 0-.2-.1a.19.19 0 0 1 0-.3c1.4-1.6 3.1-1.2 5-.7l.3.1c1.8.5 3-1.5 3-1.6a.22.22 0 0 1 .4.2s-1.4 2.3-3.6 1.8l-.3-.1c-1.9-.5-3.3-.9-4.6.5a.14.14 0 0 1 0 .2z"/><circle cx="237.2" cy="70.8" r=".6"/><circle cx="202.1" cy="69.3" r=".9"/><circle cx="227.5" cy="85.8" r=".9"/><path d="m207.7 86.9c-.1 0-.1 0-.2-.1l-5-4.5c-.1-.1-.1-.1-.1-.2s.1-.1.2-.2l5.9-1.5h.2c.1.1.1.1.1.2l-.9 6c0 .2-.1.3-.2.3zm-4.5-4.6 4.3 3.9.8-5.2z"/><path d="m415.2 45.2a3.1 3.1 0 1 1 3.2-3.1 3.14 3.14 0 0 1 -3.2 3.1zm0-5.8a2.78 2.78 0 0 0 -2.8 2.7 2.71 2.71 0 0 0 2.8 2.7 2.7 2.7 0 1 0 0-5.4z"/><path d="m464.1 9.3a1.84 1.84 0 0 1 -1.9-1.9 2 2 0 0 1 1.9-1.9 1.84 1.84 0 0 1 1.9 1.9 1.84 1.84 0 0 1 -1.9 1.9zm0-3.3a1.45 1.45 0 0 0 -1.5 1.4 1.5 1.5 0 0 0 3 0 1.45 1.45 0 0 0 -1.5-1.4z"/><path d="m413.5 59.2c-.1 0-.1 0-.2-.1l-3.1-2.8a.21.21 0 0 1 .3-.3l3.1 2.8a.19.19 0 0 1 0 .3.1.1 0 0 1 -.1.1z"/><path d="m466.7 41.7c-.1 0-.1 0-.2-.1a.19.19 0 0 1 0-.3l3.1-2.8a.21.21 0 0 1 .3.3l-3.1 2.8a.1.1 0 0 1 -.1.1z"/><path d="m436.4 26.8c-.1 0-.1 0-.2-.1l-2-2a.19.19 0 0 1 0-.3l1.3-2.5c0-.1.1-.1.2-.1l2.8.4a.22.22 0 0 1 .2.2l.4 2.7c0 .1 0 .2-.1.2l-2.5 1.3zm-1.8-2.2 1.8 1.7 2.2-1.1-.4-2.4-2.5-.4z"/><path d="m409.7 24.4c-.2 0-.3-.2-.2-.3s.7-2.3 1.7-2.8a.85.85 0 0 1 .7 0 4.23 4.23 0 0 1 1.3 1.1c1.2 1.2 2.1 1.9 3.1 1.2a9.68 9.68 0 0 0 1.9-2.2c.6-.9 1.1-1.6 1.8-1.8.1 0 .2 0 .3.2s0 .2-.2.3c-.5.1-1 .8-1.5 1.6a8.48 8.48 0 0 1 -2 2.3c-1.4 1.1-2.6-.2-3.7-1.2a9 9 0 0 0 -1.2-1c-.1-.1-.2-.1-.4 0-.7.3-1.3 1.9-1.5 2.5.1 0 0 .1-.1.1z"/><path d="m463.9 25.2c-.1 0-.2 0-.2-.1-.3-.5-1.1-.7-2-.9a13.1 13.1 0 0 1 -2.9-1.1c-1.5-1-.6-2.5.1-3.8a3.28 3.28 0 0 0 .6-1.4.37.37 0 0 0 -.1-.3c-.5-.5-2.2-.6-2.9-.6a.2.2 0 0 1 0-.4c.3 0 2.5 0 3.2.8a.62.62 0 0 1 .2.7 5.17 5.17 0 0 1 -.7 1.6c-.8 1.4-1.3 2.5-.2 3.2a11.81 11.81 0 0 0 2.7 1.1c1 .3 1.9.5 2.2 1.1.1.1 0 .2-.1.3.2-.2.2-.2.1-.2z"/><path d="m392.5 57.7-6.4-2.2a.19.19 0 0 1 -.1-.3l2.3-6.2a.19.19 0 0 1 .3-.1l6.3 2.2a.19.19 0 0 1 .1.3l-2.3 6.2a.35.35 0 0 1 -.2.1zm-6-2.6 5.9 2.1 2.1-5.8-5.9-2.1z"/><path d="m385.1 33a.22.22 0 0 1 -.2-.2c-.4-3.7 2.9-6.7 3-6.9a.21.21 0 0 1 .3.3s-3.2 3-2.9 6.5c.1.2 0 .3-.2.3z"/><path d="m434.9 58.9h-.1a.37.37 0 0 1 -.1-.3s1.4-2.3 3.6-1.8l.3.1c1.9.5 3.3.9 4.6-.5a.21.21 0 1 1 .3.3c-1.4 1.6-3.1 1.2-5 .7l-.3-.1c-1.8-.5-3 1.5-3 1.6z"/><path d="m384.8 43.5c-.1 0-.2 0-.2-.1s-1.2-2-3-1.6l-.3.1c-1.9.5-3.6.9-5-.7a.21.21 0 0 1 .3-.3c1.3 1.4 2.7 1 4.6.5l.3-.1c2.1-.6 3.5 1.7 3.6 1.8s0 .2-.1.3a.31.31 0 0 1 -.2.1z"/><circle cx="414.6" cy="6.8" r=".6"/><circle cx="398.3" cy="32.1" r=".6"/><circle cx="452.9" cy="29.5" r=".6"/><circle cx="424.3" cy="55" r=".6"/><circle cx="388.1" cy="13.1" r=".9"/><circle cx="459.3" cy="56.5" r=".9"/><circle cx="439.1" cy="7.4" r=".9"/><circle cx="434" cy="40.1" r=".9"/><path d="m452.9 45.4c-.1 0-.1 0-.2-.1s-.1-.1-.1-.2l.9-6c0-.1.1-.1.1-.2h.2l5 4.5c.1.1.1.1.1.2s-.1.1-.2.2zm1.1-5.8-.8 5.2 5.2-1.3z"/><path d="m402.6 16.4-5-1.3c-.1 0-.1-.1-.2-.2s0-.2.1-.2l4.2-3.8c.1-.1.2-.1.2 0s.1.1.1.2l.8 5c0 .1 0 .1-.1.2zm-4.5-1.6 4.2 1.1-.7-4.3z"/><path d="m477.7 59.1a3.1 3.1 0 1 1 3.2-3.1 3.14 3.14 0 0 1 -3.2 3.1zm0-5.9a2.78 2.78 0 0 0 -2.8 2.7 2.71 2.71 0 0 0 2.8 2.7 2.78 2.78 0 0 0 2.8-2.7 2.84 2.84 0 0 0 -2.8-2.7z"/><path d="m502.4 9.5a3.14 3.14 0 0 1 -3.2-3.1 3.2 3.2 0 0 1 6.4 0 3.14 3.14 0 0 1 -3.2 3.1zm0-5.8a2.78 2.78 0 0 0 -2.8 2.7 2.71 2.71 0 0 0 2.8 2.7 2.78 2.78 0 0 0 2.8-2.7 2.78 2.78 0 0 0 -2.8-2.7z"/><path d="m551.3 42.9a1.84 1.84 0 0 1 -1.9-1.9 1.9 1.9 0 0 1 1.9-1.9 1.9 1.9 0 1 1 0 3.8zm0-3.3a1.4 1.4 0 1 0 1.5 1.4 1.45 1.45 0 0 0 -1.5-1.4z"/><path d="m498.3 58.3c-.1 0-.1 0-.2-.1l-3.8-3.3a.21.21 0 0 1 .3-.3l3.8 3.3a.19.19 0 0 1 0 .3c0 .1 0 .1-.1.1z"/><path d="m528.3 55.6h-.1a.37.37 0 0 1 -.1-.3l2.1-3.6a.22.22 0 0 1 .4.2l-2.1 3.6a.35.35 0 0 0 -.2.1z"/><path d="m557 10c-.1 0-.1 0-.2-.1l-3.1-2.8a.21.21 0 1 1 .3-.3l3.1 2.8a.19.19 0 0 1 0 .3c0 .1 0 .1-.1.1z"/><path d="m546.4 59.2c-.1 0-.1 0-.2-.1l-2.1-1.9a.37.37 0 0 1 -.1-.3l1.2-2.5c0-.1.1-.1.2-.1l2.8.3a.22.22 0 0 1 .2.2l.5 2.7c0 .1 0 .2-.1.2l-2.5 1.3c.2.2.2.2.1.2zm-1.8-2.1 1.8 1.7 2.2-1.2-.5-2.4-2.5-.3z"/><path d="m522.9 26.5c-.1 0-.2 0-.2-.1l-1.3-2.5v-.3l2-2a.19.19 0 0 1 .3 0l2.5 1.3c.1 0 .1.1.1.2l-.4 2.7a.22.22 0 0 1 -.2.2zm-1.1-2.7 1.2 2.2 2.5-.4.4-2.4-2.2-1.1z"/><path d="m507.3 28.9c-.8-.2-1.3-.9-1.8-1.8a9.68 9.68 0 0 0 -1.9-2.2c-1-.8-1.9 0-3.1 1.2a5.83 5.83 0 0 1 -1.3 1.1.85.85 0 0 1 -.7 0c-1-.4-1.6-2.5-1.7-2.8 0-.1 0-.2.2-.3a.37.37 0 0 1 .3.1c.2.6.8 2.2 1.5 2.5a.3.3 0 0 0 .4 0 4.84 4.84 0 0 0 1.2-1c1-1 2.3-2.3 3.7-1.2a8.48 8.48 0 0 1 2 2.3 3.9 3.9 0 0 0 1.5 1.6c.1 0 .2.1.2.3-.4.1-.4.2-.5.2z"/><path d="m543.9 32h-.1a.2.2 0 0 1 0-.4c.6 0 2.4-.1 2.9-.6a.37.37 0 0 0 .1-.3 3.28 3.28 0 0 0 -.6-1.4c-.7-1.3-1.5-2.8-.1-3.8a7.91 7.91 0 0 1 2.9-1.1 4.68 4.68 0 0 0 2-.9.22.22 0 0 1 .4.2 3.3 3.3 0 0 1 -2.2 1.1 7 7 0 0 0 -2.7 1.1c-1 .7-.6 1.8.2 3.2a7.09 7.09 0 0 1 .7 1.6 1.45 1.45 0 0 1 -.2.7 7.24 7.24 0 0 1 -3.3.6z"/><path d="m475.3 22.5c-.1 0-.1 0-.2-.1s-3.4-3.1-3-6.9a.2.2 0 1 1 .4 0c-.3 3.5 2.8 6.5 2.9 6.5a.19.19 0 0 1 0 .3c0 .2-.1.2-.1.2z"/><circle cx="501.8" cy="41.6" r=".6"/><circle cx="512.8" cy="57.4" r=".6"/><circle cx="468.4" cy="53" r=".6"/><circle cx="485.5" cy="16.4" r=".6"/><circle cx="540.1" cy="19" r=".6"/><circle cx="475.3" cy="35.3" r=".9"/><circle cx="526.3" cy="41" r=".9"/><circle cx="521.2" cy="8.4" r=".9"/><path d="m541 9.5c-.2 0-.2-.1-.2-.2l-.9-6c0-.1 0-.1.1-.2s.1-.1.2 0l5.9 1.5c.1 0 .1.1.2.2s0 .2-.1.2l-5 4.5zm-.7-5.9.8 5.2 4.3-3.9z"/><path d="m489 37.6c-.1 0-.1 0-.2-.1l-4.2-3.8c-.1-.1-.1-.1-.1-.2s.1-.1.2-.2l5-1.3h.2c.1 0 .1.1.1.2l-.8 5c0 .2 0 .3-.2.4zm-3.7-3.9 3.5 3.2.7-4.3z"/><path d="m542.9 75.4a3.1 3.1 0 1 1 3.2-3.1 3.08 3.08 0 0 1 -3.2 3.1zm0-5.8a2.78 2.78 0 0 0 -2.8 2.7 2.71 2.71 0 0 0 2.8 2.7 2.78 2.78 0 0 0 2.8-2.7 2.71 2.71 0 0 0 -2.8-2.7z"/><path d="m469.3 86.7a1.84 1.84 0 0 1 -1.9-1.9 1.9 1.9 0 0 1 1.9-1.9 1.9 1.9 0 0 1 0 3.8zm0-3.3a1.4 1.4 0 1 0 1.5 1.4 1.39 1.39 0 0 0 -1.5-1.4z"/><path d="m526.1 71.3c-.1 0-.1 0-.2-.1l-3.8-3.3a.21.21 0 0 1 .3-.3l3.8 3.3a.19.19 0 0 1 0 .3c0 .1 0 .1-.1.1z"/><path d="m490.3 74.3h-.1a.37.37 0 0 1 -.1-.3l2.1-3.6a.22.22 0 1 1 .4.2l-2.1 3.6a.31.31 0 0 1 -.2.1z"/><path d="m475.1 71.5-2.8-.3a.22.22 0 0 1 -.2-.2l-.5-2.7c0-.1 0-.2.1-.2l2.5-1.3h.3l2.1 1.9a.37.37 0 0 1 .1.3l-1.2 2.5c-.2-.1-.3 0-.4 0zm-2.6-.8 2.5.3 1.1-2.2-1.8-1.7-2.2 1.2z"/><circle cx="518.9" cy="84.2" r=".6"/><circle cx="507.9" cy="68.5" r=".6"/><circle cx="552.2" cy="75.2" r=".6"/><circle cx="545.4" cy="90.6" r=".9"/><circle cx="494.3" cy="84.8" r=".9"/><path d="m530.8 93.8c-.1 0-.1 0-.2-.1s-.1-.1-.1-.2l.8-5c0-.1.1-.1.1-.2h.2l4.2 3.8c.1.1.1.1.1.2s-.1.1-.2.2zm1-4.8-.7 4.3 4.2-1.1z"/><path d="m431 86.9a3.1 3.1 0 1 1 3.2-3.1 3.08 3.08 0 0 1 -3.2 3.1zm0-5.8a2.78 2.78 0 0 0 -2.8 2.7 2.71 2.71 0 0 0 2.8 2.7 2.78 2.78 0 0 0 2.8-2.7 2.71 2.71 0 0 0 -2.8-2.7z"/><path d="m435.9 69.8c-.1 0-.1 0-.2-.1l-3.1-2.8a.21.21 0 0 1 .3-.3l3.1 2.8a.19.19 0 0 1 0 .3c0 .1 0 .1-.1.1z"/><path d="m376.4 87.4c-.1 0-.1 0-.2-.1a.19.19 0 0 1 0-.3l3.1-2.8a.21.21 0 1 1 .3.3l-3.1 2.8c0 .1 0 .1-.1.1z"/><path d="m457.8 77-6.4-2.2a.19.19 0 0 1 -.1-.3l2.3-6.2a.19.19 0 0 1 .3-.1l6.3 2.2a.19.19 0 0 1 .1.3l-2.3 6.2c0 .1-.1.1-.2.1zm-6.1-2.5 5.9 2.1 2.1-5.8-5.9-2.1z"/><path d="m402.9 69.6c-.1 0-.1 0-.2-.1a.19.19 0 0 1 0-.3c1.4-1.6 3.1-1.2 5-.7l.3.1c1.8.5 3-1.5 3-1.6a.22.22 0 1 1 .4.2s-1.4 2.3-3.6 1.8l-.3-.1c-1.9-.5-3.3-.9-4.6.5.2.1.1.2 0 .2z"/><circle cx="421.9" cy="70.8" r=".6"/><circle cx="386.9" cy="69.3" r=".9"/><circle cx="412.2" cy="85.8" r=".9"/><path d="m392.4 86.9c-.1 0-.1 0-.2-.1l-5-4.5c-.1-.1-.1-.1-.1-.2s.1-.1.2-.2l5.9-1.5h.2c.1.1.1.1.1.2l-.9 6c0 .2 0 .3-.2.3zm-4.5-4.6 4.3 3.9.8-5.2z"/><path d="m600 45.2a3.1 3.1 0 1 1 3.2-3.1 3.2 3.2 0 0 1 -3.2 3.1zm0-5.8a2.78 2.78 0 0 0 -2.8 2.7 2.71 2.71 0 0 0 2.8 2.7 2.78 2.78 0 0 0 2.8-2.7 2.84 2.84 0 0 0 -2.8-2.7z"/><path d="m648.8 9.3a1.84 1.84 0 0 1 -1.9-1.9 2 2 0 0 1 1.9-1.9 1.84 1.84 0 0 1 1.9 1.9 1.78 1.78 0 0 1 -1.9 1.9zm0-3.3a1.45 1.45 0 0 0 -1.5 1.4 1.5 1.5 0 0 0 3 0 1.39 1.39 0 0 0 -1.5-1.4z"/><path d="m598.2 59.2c-.1 0-.1 0-.2-.1l-3.1-2.8a.21.21 0 1 1 .3-.3l3.1 2.8a.19.19 0 0 1 0 .3c.1.1 0 .1-.1.1z"/><path d="m651.4 41.7c-.1 0-.1 0-.2-.1a.19.19 0 0 1 0-.3l3.1-2.8a.21.21 0 1 1 .3.3l-3.1 2.8c0 .1 0 .1-.1.1z"/><path d="m621.1 26.8c-.1 0-.1 0-.2-.1l-2-2a.19.19 0 0 1 0-.3l1.3-2.5c0-.1.1-.1.2-.1l2.8.4a.22.22 0 0 1 .2.2l.4 2.7c0 .1 0 .2-.1.2l-2.5 1.3c0 .2 0 .2-.1.2zm-1.7-2.2 1.8 1.7 2.2-1.1-.4-2.4-2.5-.4z"/><path d="m594.5 24.4c-.2 0-.3-.2-.2-.3s.7-2.3 1.7-2.8a.85.85 0 0 1 .7 0 4.23 4.23 0 0 1 1.3 1.1c1.2 1.2 2.1 1.9 3.1 1.2a9.68 9.68 0 0 0 1.9-2.2c.6-.9 1.1-1.6 1.8-1.8.1 0 .2 0 .3.2s0 .2-.2.3c-.5.1-1 .8-1.5 1.6a8.48 8.48 0 0 1 -2 2.3c-1.4 1.1-2.6-.2-3.7-1.2a9 9 0 0 0 -1.2-1c-.1-.1-.2-.1-.4 0-.7.3-1.3 1.9-1.5 2.5a.1.1 0 0 1 -.1.1z"/><path d="m648.7 25.2c-.1 0-.2 0-.2-.1-.3-.5-1.1-.7-2-.9a13.1 13.1 0 0 1 -2.9-1.1c-1.5-1-.6-2.5.1-3.8a3.28 3.28 0 0 0 .6-1.4.37.37 0 0 0 -.1-.3c-.5-.5-2.2-.6-2.9-.6a.2.2 0 0 1 0-.4c.3 0 2.5 0 3.2.8a.62.62 0 0 1 .2.7 5.17 5.17 0 0 1 -.7 1.6c-.8 1.4-1.3 2.5-.2 3.2a11.81 11.81 0 0 0 2.7 1.1c1 .3 1.9.5 2.2 1.1.1.1 0 .2-.1.3.2-.2.1-.2.1-.2z"/><path d="m577.3 57.7-6.4-2.2a.19.19 0 0 1 -.1-.3l2.2-6.2a.19.19 0 0 1 .3-.1l6.3 2.2a.19.19 0 0 1 .1.3l-2.3 6.2c.1 0 0 .1-.1.1zm-6.1-2.6 5.9 2.1 2.1-5.8-5.9-2.1z"/><path d="m569.9 33a.22.22 0 0 1 -.2-.2c-.4-3.7 2.9-6.7 3-6.9a.21.21 0 1 1 .3.3s-3.2 3-2.9 6.5c0 .2-.1.3-.2.3z"/><path d="m619.7 58.9h-.1a.37.37 0 0 1 -.1-.3s1.4-2.3 3.6-1.8l.3.1c1.9.5 3.3.9 4.6-.5a.21.21 0 1 1 .3.3c-1.4 1.6-3.1 1.2-5 .7l-.3-.1c-1.8-.5-3 1.5-3 1.6z"/><path d="m569.5 43.5c-.1 0-.2 0-.2-.1s-1.2-2-3-1.6l-.3.1c-1.9.5-3.6.9-5-.7a.21.21 0 1 1 .3-.3c1.3 1.4 2.7 1 4.6.5l.3-.1c2.1-.6 3.5 1.7 3.6 1.8s0 .2-.1.3-.1.1-.2.1z"/><circle cx="599.3" cy="6.8" r=".6"/><circle cx="583" cy="32.1" r=".6"/><circle cx="637.6" cy="29.5" r=".6"/><circle cx="609.1" cy="55" r=".6"/><circle cx="572.8" cy="13.1" r=".9"/><circle cx="644.1" cy="56.5" r=".9"/><circle cx="623.9" cy="7.4" r=".9"/><circle cx="618.8" cy="40.1" r=".9"/><path d="m637.6 45.4c-.1 0-.1 0-.2-.1s-.1-.1-.1-.2l.9-6c0-.1.1-.1.1-.2h.2l5 4.5c.1.1.1.1.1.2s-.1.1-.2.2zm1.1-5.8-.8 5.2 5.2-1.3z"/><path d="m587.3 16.4-5-1.3c-.1 0-.1-.1-.2-.2s0-.2.1-.2l4.2-3.8c.1-.1.2-.1.2 0s.1.1.1.2l.8 5c0 .1 0 .1-.1.2.1 0 0 .1-.1.1zm-4.5-1.6 4.2 1.1-.7-4.3z"/><path d="m662.4 59.1a3.1 3.1 0 1 1 3.2-3.1 3.08 3.08 0 0 1 -3.2 3.1zm0-5.9a2.78 2.78 0 0 0 -2.8 2.7 2.71 2.71 0 0 0 2.8 2.7 2.7 2.7 0 1 0 0-5.4z"/><path d="m687.2 9.5a3.14 3.14 0 0 1 -3.2-3.1 3.2 3.2 0 0 1 6.4 0 3.2 3.2 0 0 1 -3.2 3.1zm0-5.8a2.78 2.78 0 0 0 -2.8 2.7 2.71 2.71 0 0 0 2.8 2.7 2.78 2.78 0 0 0 2.8-2.7 2.84 2.84 0 0 0 -2.8-2.7z"/><path d="m683.1 58.3c-.1 0-.1 0-.2-.1l-3.8-3.3a.21.21 0 0 1 .3-.3l3.8 3.3a.19.19 0 0 1 0 .3.1.1 0 0 1 -.1.1z"/><path d="m713 55.6h-.1a.37.37 0 0 1 -.1-.3l2.1-3.6a.22.22 0 1 1 .4.2l-2.1 3.6a.35.35 0 0 1 -.2.1z"/><path d="m707.6 26.5c-.1 0-.2 0-.2-.1l-1.3-2.5v-.3l2-2a.19.19 0 0 1 .3 0l2.5 1.3c.1 0 .1.1.1.2l-.4 2.7a.22.22 0 0 1 -.2.2zm-1-2.7 1.1 2.2 2.5-.4.4-2.4-2.2-1.1z"/><path d="m692 28.9c-.8-.2-1.3-.9-1.8-1.8a9.68 9.68 0 0 0 -1.9-2.2c-1-.8-1.9 0-3.1 1.2a5.83 5.83 0 0 1 -1.3 1.1.85.85 0 0 1 -.7 0c-1-.4-1.6-2.5-1.7-2.8 0-.1 0-.2.2-.3a.37.37 0 0 1 .3.1c.2.6.8 2.2 1.5 2.5a.3.3 0 0 0 .4 0 4.84 4.84 0 0 0 1.2-1c1-1 2.3-2.3 3.7-1.2a8.48 8.48 0 0 1 2 2.3 3.9 3.9 0 0 0 1.5 1.6c.1 0 .2.1.2.3-.3.1-.4.2-.5.2z"/><path d="m660 22.5c-.1 0-.1 0-.2-.1s-3.4-3.1-3-6.9a.2.2 0 0 1 .4 0c-.3 3.5 2.8 6.5 2.9 6.5a.19.19 0 0 1 0 .3c0 .2 0 .2-.1.2z"/><circle cx="686.5" cy="41.6" r=".6"/><circle cx="697.5" cy="57.4" r=".6"/><circle cx="653.2" cy="53" r=".6"/><circle cx="670.2" cy="16.4" r=".6"/><circle cx="724.8" cy="19" r=".6"/><circle cx="660" cy="35.3" r=".9"/><circle cx="711.1" cy="41" r=".9"/><circle cx="706" cy="8.4" r=".9"/><path d="m725.8 9.5c-.2 0-.2-.1-.2-.2l-.9-6c0-.1 0-.1.1-.2s.1-.1.2 0l5.9 1.5c.1 0 .1.1.2.2s0 .2-.1.2l-5 4.5zm-.7-5.9.8 5.2 4.3-3.9z"/><path d="m673.8 37.6c-.1 0-.1 0-.2-.1l-4.2-3.8c-.1-.1-.1-.1-.1-.2s.1-.1.2-.2l5-1.3h.2c.1 0 .1.1.1.2l-.8 5a.52.52 0 0 1 -.2.4zm-3.8-3.9 3.5 3.2.7-4.3z"/><path d="m727.7 75.4a3.1 3.1 0 1 1 3.2-3.1 3.14 3.14 0 0 1 -3.2 3.1zm0-5.8a2.78 2.78 0 0 0 -2.8 2.7 2.71 2.71 0 0 0 2.8 2.7 2.7 2.7 0 1 0 0-5.4z"/><path d="m654.1 86.7a1.84 1.84 0 0 1 -1.9-1.9 1.9 1.9 0 0 1 1.9-1.9 1.9 1.9 0 0 1 0 3.8zm0-3.3a1.4 1.4 0 1 0 1.5 1.4 1.45 1.45 0 0 0 -1.5-1.4z"/><path d="m710.9 71.3c-.1 0-.1 0-.2-.1l-3.8-3.3a.21.21 0 1 1 .3-.3l3.8 3.3a.19.19 0 0 1 0 .3.1.1 0 0 1 -.1.1z"/><path d="m675 74.3h-.1a.37.37 0 0 1 -.1-.3l2.1-3.6a.22.22 0 0 1 .4.2l-2.1 3.6c0 .1-.1.1-.2.1z"/><path d="m659.8 71.5-2.8-.3a.22.22 0 0 1 -.2-.2l-.5-2.7c0-.1 0-.2.1-.2l2.5-1.3h.3l2.1 1.9a.37.37 0 0 1 .1.3l-1.2 2.5c-.2-.1-.3 0-.4 0zm-2.6-.8 2.5.3 1.1-2.2-1.8-1.7-2.2 1.2z"/><circle cx="703.6" cy="84.2" r=".6"/><circle cx="692.6" cy="68.5" r=".6"/><circle cx="679.1" cy="84.8" r=".9"/><path d="m715.6 93.8c-.1 0-.1 0-.2-.1s-.1-.1-.1-.2l.8-5c0-.1.1-.1.1-.2h.2l4.2 3.8c.1.1.1.1.1.2s-.1.1-.2.2zm.9-4.8-.7 4.3 4.2-1.1z"/><path d="m615.8 86.9a3.1 3.1 0 1 1 3.2-3.1 3.14 3.14 0 0 1 -3.2 3.1zm0-5.8a2.78 2.78 0 0 0 -2.8 2.7 2.71 2.71 0 0 0 2.8 2.7 2.78 2.78 0 0 0 2.8-2.7 2.84 2.84 0 0 0 -2.8-2.7z"/><path d="m620.7 69.8c-.1 0-.1 0-.2-.1l-3.1-2.8a.21.21 0 1 1 .3-.3l3.1 2.8a.19.19 0 0 1 0 .3.1.1 0 0 1 -.1.1z"/><path d="m561.2 87.4c-.1 0-.1 0-.2-.1a.19.19 0 0 1 0-.3l3.1-2.8a.21.21 0 1 1 .3.3l-3.1 2.8a.1.1 0 0 1 -.1.1z"/><path d="m642.5 77-6.4-2.2a.19.19 0 0 1 -.1-.3l2.3-6.2a.19.19 0 0 1 .3-.1l6.3 2.2a.19.19 0 0 1 .1.3l-2.3 6.2c0 .1-.1.1-.2.1zm-6-2.5 5.9 2.1 2.1-5.8-5.9-2.1z"/><path d="m587.7 69.6c-.1 0-.1 0-.2-.1a.19.19 0 0 1 0-.3c1.4-1.6 3.1-1.2 5-.7l.3.1c1.8.5 3-1.5 3-1.6a.22.22 0 0 1 .4.2s-1.4 2.3-3.6 1.8l-.3-.1c-1.9-.5-3.3-.9-4.6.5a.14.14 0 0 1 0 .2z"/><circle cx="606.7" cy="70.8" r=".6"/><circle cx="571.6" cy="69.3" r=".9"/><circle cx="597" cy="85.8" r=".9"/><path d="m577.2 86.9c-.1 0-.1 0-.2-.1l-5-4.5c-.1-.1-.1-.1-.1-.2s.1-.1.2-.2l5.9-1.5h.2c.1.1.1.1.1.2l-.9 6c0 .2-.1.3-.2.3zm-4.5-4.6 4.3 3.9.8-5.2z"/></g><g clip-path="url(#b)" fill="#005499"><path d="m577.6 45.2a3.1 3.1 0 1 1 3.2-3.1 3.14 3.14 0 0 1 -3.2 3.1zm0-5.8a2.78 2.78 0 0 0 -2.8 2.7 2.71 2.71 0 0 0 2.8 2.7 2.7 2.7 0 1 0 0-5.4z"/><path d="m626.5 9.3a1.84 1.84 0 0 1 -1.9-1.9 2 2 0 0 1 1.9-1.9 1.84 1.84 0 0 1 1.9 1.9 1.84 1.84 0 0 1 -1.9 1.9zm0-3.3a1.45 1.45 0 0 0 -1.5 1.4 1.5 1.5 0 0 0 3 0 1.45 1.45 0 0 0 -1.5-1.4z"/><path d="m575.9 59.2c-.1 0-.1 0-.2-.1l-3.1-2.8a.21.21 0 0 1 .3-.3l3.1 2.8a.19.19 0 0 1 0 .3.1.1 0 0 1 -.1.1z"/><path d="m629.1 41.7c-.1 0-.1 0-.2-.1a.19.19 0 0 1 0-.3l3.1-2.8a.21.21 0 0 1 .3.3l-3.1 2.8a.1.1 0 0 1 -.1.1z"/><path d="m598.8 26.8c-.1 0-.1 0-.2-.1l-2-2a.19.19 0 0 1 0-.3l1.3-2.5c0-.1.1-.1.2-.1l2.8.4a.22.22 0 0 1 .2.2l.4 2.7c0 .1 0 .2-.1.2l-2.5 1.3zm-1.8-2.2 1.8 1.7 2.2-1.1-.4-2.4-2.5-.4z"/><path d="m572.1 24.4c-.2 0-.3-.2-.2-.3s.7-2.3 1.7-2.8a.85.85 0 0 1 .7 0 4.23 4.23 0 0 1 1.3 1.1c1.2 1.2 2.1 1.9 3.1 1.2a9.68 9.68 0 0 0 1.9-2.2c.6-.9 1.1-1.6 1.8-1.8.1 0 .2 0 .3.2s0 .2-.2.3c-.5.1-1 .8-1.5 1.6a8.48 8.48 0 0 1 -2 2.3c-1.4 1.1-2.6-.2-3.7-1.2a9 9 0 0 0 -1.2-1c-.1-.1-.2-.1-.4 0-.7.3-1.3 1.9-1.5 2.5.1 0 0 .1-.1.1z"/><path d="m626.3 25.2c-.1 0-.2 0-.2-.1-.3-.5-1.1-.7-2-.9a13.1 13.1 0 0 1 -2.9-1.1c-1.5-1-.6-2.5.1-3.8a3.28 3.28 0 0 0 .6-1.4.37.37 0 0 0 -.1-.3c-.5-.5-2.2-.6-2.9-.6a.2.2 0 0 1 0-.4c.3 0 2.5 0 3.2.8a.62.62 0 0 1 .2.7 5.17 5.17 0 0 1 -.7 1.6c-.8 1.4-1.3 2.5-.2 3.2a11.81 11.81 0 0 0 2.7 1.1c1 .3 1.9.5 2.2 1.1.1.1 0 .2-.1.3.2-.2.2-.2.1-.2z"/><path d="m554.9 57.7-6.4-2.2a.19.19 0 0 1 -.1-.3l2.3-6.2a.19.19 0 0 1 .3-.1l6.3 2.2a.19.19 0 0 1 .1.3l-2.3 6.2a.35.35 0 0 1 -.2.1zm-6-2.6 5.9 2.1 2.1-5.8-5.9-2.1z"/><path d="m547.5 33a.22.22 0 0 1 -.2-.2c-.4-3.7 2.9-6.7 3-6.9a.21.21 0 1 1 .3.3s-3.2 3-2.9 6.5c.1.2 0 .3-.2.3z"/><path d="m597.3 58.9h-.1a.37.37 0 0 1 -.1-.3s1.4-2.3 3.6-1.8l.3.1c1.9.5 3.3.9 4.6-.5a.21.21 0 1 1 .3.3c-1.4 1.6-3.1 1.2-5 .7l-.3-.1c-1.8-.5-3 1.5-3 1.6z"/><path d="m547.2 43.5c-.1 0-.2 0-.2-.1s-1.2-2-3-1.6l-.3.1c-1.9.5-3.6.9-5-.7a.21.21 0 1 1 .3-.3c1.3 1.4 2.7 1 4.6.5l.3-.1c2.1-.6 3.5 1.7 3.6 1.8s0 .2-.1.3a.31.31 0 0 1 -.2.1z"/><circle cx="577" cy="6.8" r=".6"/><circle cx="560.7" cy="32.1" r=".6"/><circle cx="615.3" cy="29.5" r=".6"/><circle cx="586.7" cy="55" r=".6"/><circle cx="550.5" cy="13.1" r=".9"/><circle cx="621.8" cy="56.5" r=".9"/><circle cx="601.5" cy="7.4" r=".9"/><circle cx="596.4" cy="40.1" r=".9"/><path d="m615.3 45.4c-.1 0-.1 0-.2-.1s-.1-.1-.1-.2l.9-6c0-.1.1-.1.1-.2h.2l5 4.5c.1.1.1.1.1.2s-.1.1-.2.2zm1.1-5.8-.8 5.2 5.2-1.3z"/><path d="m565 16.4-5-1.3c-.1 0-.1-.1-.2-.2s0-.2.1-.2l4.1-3.7c.1-.1.2-.1.2 0s.1.1.1.2l.8 5c0 .1 0 .1-.1.2.1-.1.1 0 0 0zm-4.5-1.6 4.2 1.1-.7-4.3z"/><path d="m640.1 59.1a3.1 3.1 0 1 1 3.2-3.1 3.14 3.14 0 0 1 -3.2 3.1zm0-5.9a2.78 2.78 0 0 0 -2.8 2.7 2.71 2.71 0 0 0 2.8 2.7 2.78 2.78 0 0 0 2.8-2.7 2.84 2.84 0 0 0 -2.8-2.7z"/><path d="m664.8 9.5a3.14 3.14 0 0 1 -3.2-3.1 3.2 3.2 0 0 1 6.4 0 3.14 3.14 0 0 1 -3.2 3.1zm0-5.8a2.78 2.78 0 0 0 -2.8 2.7 2.71 2.71 0 0 0 2.8 2.7 2.78 2.78 0 0 0 2.8-2.7 2.78 2.78 0 0 0 -2.8-2.7z"/><path d="m713.7 42.9a1.84 1.84 0 0 1 -1.9-1.9 1.9 1.9 0 0 1 1.9-1.9 1.9 1.9 0 0 1 0 3.8zm0-3.3a1.4 1.4 0 1 0 1.5 1.4 1.45 1.45 0 0 0 -1.5-1.4z"/><path d="m660.7 58.3c-.1 0-.1 0-.2-.1l-3.8-3.3a.21.21 0 0 1 .3-.3l3.8 3.3a.19.19 0 0 1 0 .3c0 .1 0 .1-.1.1z"/><path d="m690.7 55.6h-.1a.37.37 0 0 1 -.1-.3l2.1-3.6a.22.22 0 1 1 .4.2l-2.1 3.6a.35.35 0 0 0 -.2.1z"/><path d="m719.4 10c-.1 0-.1 0-.2-.1l-3.1-2.8a.21.21 0 1 1 .3-.3l3.1 2.8a.19.19 0 0 1 0 .3c0 .1 0 .1-.1.1z"/><path d="m708.8 59.2c-.1 0-.1 0-.2-.1l-2.1-1.9a.37.37 0 0 1 -.1-.3l1.2-2.5c0-.1.1-.1.2-.1l2.8.3a.22.22 0 0 1 .2.2l.5 2.7c0 .1 0 .2-.1.2l-2.5 1.3c.2.2.2.2.1.2zm-1.8-2.1 1.8 1.7 2.2-1.2-.5-2.4-2.5-.3z"/><path d="m685.3 26.5c-.1 0-.2 0-.2-.1l-1.3-2.5v-.3l2-2a.19.19 0 0 1 .3 0l2.5 1.3c.1 0 .1.1.1.2l-.4 2.7a.22.22 0 0 1 -.2.2zm-1.1-2.7 1.1 2.2 2.5-.4.4-2.4-2.2-1.1z"/><path d="m669.7 28.9c-.8-.2-1.3-.9-1.8-1.8a9.68 9.68 0 0 0 -1.9-2.2c-1-.8-1.9 0-3.1 1.2a5.83 5.83 0 0 1 -1.3 1.1.85.85 0 0 1 -.7 0c-1-.4-1.6-2.5-1.7-2.8 0-.1 0-.2.2-.3a.37.37 0 0 1 .3.1c.2.6.8 2.2 1.5 2.5a.3.3 0 0 0 .4 0 4.84 4.84 0 0 0 1.2-1c1-1 2.3-2.3 3.7-1.2a8.48 8.48 0 0 1 2 2.3 3.9 3.9 0 0 0 1.5 1.6c.1 0 .2.1.2.3-.3.1-.4.2-.5.2z"/><path d="m706.3 32h-.1a.2.2 0 0 1 0-.4c.6 0 2.4-.1 2.9-.6a.37.37 0 0 0 .1-.3 3.28 3.28 0 0 0 -.6-1.4c-.7-1.3-1.5-2.8-.1-3.8a7.91 7.91 0 0 1 2.9-1.1 4.68 4.68 0 0 0 2-.9.22.22 0 1 1 .4.2 3.3 3.3 0 0 1 -2.2 1.1 7 7 0 0 0 -2.7 1.1c-1 .7-.6 1.8.2 3.2a7.09 7.09 0 0 1 .7 1.6 1.45 1.45 0 0 1 -.2.7 7.24 7.24 0 0 1 -3.3.6z"/><path d="m637.7 22.5c-.1 0-.1 0-.2-.1s-3.4-3.1-3-6.9a.2.2 0 1 1 .4 0c-.3 3.5 2.8 6.5 2.9 6.5a.19.19 0 0 1 0 .3c0 .2-.1.2-.1.2z"/><circle cx="664.2" cy="41.6" r=".6"/><circle cx="675.2" cy="57.4" r=".6"/><circle cx="630.8" cy="53" r=".6"/><circle cx="647.9" cy="16.4" r=".6"/><circle cx="702.5" cy="19" r=".6"/><circle cx="637.7" cy="35.3" r=".9"/><circle cx="688.7" cy="41" r=".9"/><circle cx="683.6" cy="8.4" r=".9"/><path d="m703.4 9.5c-.2 0-.2-.1-.2-.2l-.9-6c0-.1 0-.1.1-.2s.1-.1.2 0l5.9 1.5c.1 0 .1.1.2.2s0 .2-.1.2l-5 4.5zm-.7-5.9.8 5.2 4.3-3.9z"/><path d="m651.4 37.6c-.1 0-.1 0-.2-.1l-4.2-3.8c-.1-.1-.1-.1-.1-.2s.1-.1.2-.2l5-1.3h.2c.1 0 .1.1.1.2l-.8 5c0 .2 0 .3-.2.4zm-3.7-3.9 3.5 3.2.7-4.3z"/><path d="m705.4 75.4a3.1 3.1 0 1 1 3.2-3.1 3.2 3.2 0 0 1 -3.2 3.1zm0-5.8a2.78 2.78 0 0 0 -2.8 2.7 2.71 2.71 0 0 0 2.8 2.7 2.78 2.78 0 0 0 2.8-2.7 2.84 2.84 0 0 0 -2.8-2.7z"/><path d="m631.7 86.7a1.84 1.84 0 0 1 -1.9-1.9 1.9 1.9 0 0 1 1.9-1.9 1.9 1.9 0 0 1 0 3.8zm0-3.3a1.4 1.4 0 1 0 1.5 1.4 1.39 1.39 0 0 0 -1.5-1.4z"/><path d="m688.5 71.3c-.1 0-.1 0-.2-.1l-3.8-3.3a.21.21 0 0 1 .3-.3l3.8 3.3a.19.19 0 0 1 0 .3c0 .1 0 .1-.1.1z"/><path d="m652.7 74.3h-.1a.37.37 0 0 1 -.1-.3l2.1-3.6a.22.22 0 1 1 .4.2l-2.1 3.6a.31.31 0 0 1 -.2.1z"/><path d="m637.5 71.5-2.8-.3a.22.22 0 0 1 -.2-.2l-.5-2.7c0-.1 0-.2.1-.2l2.5-1.3h.3l2.1 1.9a.37.37 0 0 1 .1.3l-1.2 2.5c-.2-.1-.3 0-.4 0zm-2.6-.8 2.5.3 1.1-2.2-1.8-1.7-2.2 1.2z"/><circle cx="681.3" cy="84.2" r=".6"/><circle cx="670.3" cy="68.5" r=".6"/><circle cx="714.6" cy="75.2" r=".6"/><circle cx="707.8" cy="90.6" r=".9"/><circle cx="656.7" cy="84.8" r=".9"/><path d="m693.2 93.8c-.1 0-.1 0-.2-.1s-.1-.1-.1-.2l.8-5c0-.1.1-.1.1-.2h.2l4.2 3.8c.1.1.1.1.1.2s-.1.1-.2.2zm1-4.8-.7 4.3 4.2-1.1z"/><path d="m593.4 86.9a3.1 3.1 0 1 1 3.2-3.1 3.08 3.08 0 0 1 -3.2 3.1zm0-5.8a2.78 2.78 0 0 0 -2.8 2.7 2.71 2.71 0 0 0 2.8 2.7 2.78 2.78 0 0 0 2.8-2.7 2.71 2.71 0 0 0 -2.8-2.7z"/><path d="m598.3 69.8c-.1 0-.1 0-.2-.1l-3.1-2.7a.21.21 0 1 1 .3-.3l3.1 2.8a.19.19 0 0 1 0 .3z"/><path d="m538.8 87.4c-.1 0-.1 0-.2-.1a.19.19 0 0 1 0-.3l3.1-2.8a.21.21 0 1 1 .3.3l-3.1 2.8c0 .1 0 .1-.1.1z"/><path d="m620.2 77-6.4-2.2a.19.19 0 0 1 -.1-.3l2.3-6.2a.19.19 0 0 1 .3-.1l6.3 2.2a.19.19 0 0 1 .1.3l-2.3 6.2c0 .1-.1.1-.2.1zm-6.1-2.5 5.9 2.1 2.1-5.8-5.9-2.1z"/><path d="m565.3 69.6c-.1 0-.1 0-.2-.1a.19.19 0 0 1 0-.3c1.4-1.6 3.1-1.2 5-.7l.3.1c1.8.5 3-1.5 3-1.6a.22.22 0 0 1 .4.2s-1.4 2.3-3.6 1.8l-.3-.1c-1.9-.5-3.3-.9-4.6.5.2.1.1.2 0 .2z"/><circle cx="584.3" cy="70.8" r=".6"/><circle cx="549.3" cy="69.3" r=".9"/><circle cx="574.6" cy="85.8" r=".9"/><path d="m554.8 86.9c-.1 0-.1 0-.2-.1l-5-4.5c-.1-.1-.1-.1-.1-.2s.1-.1.2-.2l5.9-1.5h.2c.1.1.1.1.1.2l-.9 6c0 .2 0 .3-.2.3zm-4.5-4.6 4.3 3.9.8-5.2z"/><path d="m732 43.5c-.1 0-.2 0-.2-.1s-1.2-2-3-1.6l-.3.1c-1.9.5-3.6.9-5-.7a.21.21 0 1 1 .3-.3c1.3 1.4 2.7 1 4.6.5l.3-.1c2.1-.6 3.5 1.7 3.6 1.8s0 .2-.1.3z"/><path d="m723.6 87.4c-.1 0-.1 0-.2-.1a.19.19 0 0 1 0-.3l3.1-2.8a.21.21 0 1 1 .3.3l-3.1 2.8a.1.1 0 0 1 -.1.1z"/></g><g fill="#fff"><path d="m0 0v90h193.3l33.7-90z"/><circle cx="577.1" cy="3.9" r=".9"/><circle cx="577.1" cy="10.9" r=".9"/><circle cx="577.1" cy="17.8" r=".9"/><circle cx="577.1" cy="24.8" r=".9"/><circle cx="571.2" cy="3.9" r=".9"/><circle cx="571.2" cy="10.9" r=".9"/><circle cx="571.2" cy="17.8" r=".9"/><circle cx="571.2" cy="24.8" r=".9"/><circle cx="565.2" cy="3.9" r=".9"/><circle cx="565.2" cy="10.9" r=".9"/><circle cx="565.2" cy="17.8" r=".9"/><circle cx="565.2" cy="24.8" r=".9"/><circle cx="559.3" cy="3.9" r=".9"/><circle cx="559.3" cy="10.9" r=".9"/><circle cx="559.3" cy="17.8" r=".9"/><circle cx="559.3" cy="24.8" r=".9"/><circle cx="553.3" cy="3.9" r=".9"/><circle cx="553.3" cy="10.9" r=".9"/><circle cx="553.3" cy="17.8" r=".9"/><circle cx="553.3" cy="24.8" r=".9"/></g><g clip-path="url(#c)" fill="#009eed"><path d="m670.1 92.3c0-.1-.1-.3-.2-.3s-3.5-2.1-2.7-5.2l.1-.4c.9-3.3 1.6-6.1-1.1-8.6a.35.35 0 0 0 -.5.5c2.3 2.1 1.7 4.6.9 7.8l-.1.4c-.9 3.6 2.8 5.9 3 6a.44.44 0 0 0 .5-.1c.1 0 .1 0 .1-.1z"/><circle cx="592.6" cy="86.2" r="1"/></g><path d="m300.1 45h-105.7a6.59 6.59 0 0 1 -6.6-6.6v-12.7a6.59 6.59 0 0 1 6.6-6.6h105.7a6.59 6.59 0 0 1 6.6 6.6v12.7a6.53 6.53 0 0 1 -6.6 6.6z" fill="#0566c6"/><path d="m286.5 73.5h-92.9a5.7 5.7 0 0 1 -5.7-5.7v-14.5a5.7 5.7 0 0 1 5.7-5.7h92.9a5.7 5.7 0 0 1 5.7 5.7v14.5a5.7 5.7 0 0 1 -5.7 5.7z" fill="#0566c6"/><path d="m60.3 38.9a6.65 6.65 0 0 0 -.9-3.9 3.33 3.33 0 0 0 -1.7-1.4 8.12 8.12 0 0 0 -2.9-.4h-3.9c-.1 0-.1 0-.1.1l-6.3 23.6v.1l.1.1h2.4c3 0 5.3-.5 6.7-1.6a9.81 9.81 0 0 0 3-3.6 29.12 29.12 0 0 0 2.3-6.4 28.58 28.58 0 0 0 1.3-6.6zm-11.8 15.1 4.8-17.9h.3c1.7 0 2.6.7 2.9 2s-.1 3.8-1 7.5c-.9 3.4-1.8 5.6-2.8 6.8a5.57 5.57 0 0 1 -4.2 1.6z" fill="#00aeef"/><path d="m69.9 48.9a21.32 21.32 0 0 0 .7-3.7 6.86 6.86 0 0 0 -.2-2.6 3.25 3.25 0 0 0 -1.2-1.6 4.47 4.47 0 0 0 -2.2-.5c-3.4 0-5.8 2.8-7.3 8.3-.9 3.5-.9 5.9.1 7.2a3.23 3.23 0 0 0 2.8 1.2c3.4-.1 5.8-2.9 7.3-8.3zm-6.5 5.2a1 1 0 0 1 -1-1.1 14.62 14.62 0 0 1 .7-4.2 20.67 20.67 0 0 1 1.5-4.2 2.13 2.13 0 0 1 1.7-1.2 1 1 0 0 1 1 1.1 13.43 13.43 0 0 1 -.8 4.3 17.25 17.25 0 0 1 -1.5 4.1 1.88 1.88 0 0 1 -1.6 1.2z" fill="#00aeef"/><path d="m88.5 41.6a3 3 0 0 0 -2.5-.9 5 5 0 0 0 -3.8 2c-.2-1.4-1-2-2.5-2a4.82 4.82 0 0 0 -3.5 1.8l.4-1.4v-.1l-.1-.1h-2.9c-.1 0-.1 0-.1.1l-4.2 15.8v.1l.1.1h2.9c.1 0 .1 0 .1-.1l2.8-10.4a6.25 6.25 0 0 1 1-2.3 2.13 2.13 0 0 1 1.5-.7 1.45 1.45 0 0 1 .7.2c.2.1.3.2.3.4a1.35 1.35 0 0 1 0 .9c-.1.4-.2.9-.3 1.4l-2.8 10.4v.1l.1.1h3c.1 0 .1 0 .1-.1l2.8-10.4a7.29 7.29 0 0 1 1-2.3 1.89 1.89 0 0 1 1.5-.6c.6 0 .9.2 1 .5a5.58 5.58 0 0 1 -.3 2.3l-2.8 10.4v.1l.1.1h2.9c.1 0 .1 0 .1-.1l3.4-12.6a2.8 2.8 0 0 0 0-2.7z" fill="#00aeef"/><path d="m101 40.8-.1-.1h-2.9c-.1 0-.1 0-.1.1l-.4 1.4a2.34 2.34 0 0 0 -2.3-1.7 4.32 4.32 0 0 0 -3.5 2 17.75 17.75 0 0 0 -2.5 6.1 16.76 16.76 0 0 0 -.8 6.4 2.33 2.33 0 0 0 2.5 2.1 3.45 3.45 0 0 0 1.8-.5 8 8 0 0 0 1.4-1.3l-.4 1.5v.1l.1.1h2.9c.1 0 .1 0 .1-.1l4.2-15.8zm-5.2 7.9a14.73 14.73 0 0 1 -1.6 4.2 2.13 2.13 0 0 1 -1.7 1.2c-.7 0-1-.4-1-1.1a13 13 0 0 1 .8-4.3 13 13 0 0 1 1.6-4.2 2.13 2.13 0 0 1 1.7-1.2c.6 0 .9.4 1 1.2a28.63 28.63 0 0 1 -.8 4.2z" fill="#00aeef"/><path d="m105.6 41-.1-.1h-2.9c-.1 0-.1 0-.1.1l-4.2 15.8v.1l.1.1h2.9c.1 0 .1 0 .1-.1l4.2-15.8z" fill="#00aeef"/><path d="m104.7 38.4a2.45 2.45 0 0 0 1.6-.6 2.52 2.52 0 0 0 1-1.5 1.55 1.55 0 0 0 -.2-1.5 1.61 1.61 0 0 0 -1.3-.6 3.19 3.19 0 0 0 -1.7.6 2.52 2.52 0 0 0 -1 1.5 1.55 1.55 0 0 0 .2 1.5 1.68 1.68 0 0 0 1.4.6z" fill="#00aeef"/><path d="m120.5 33.2-.1-.1h-3.2c-.1 0-.1 0-.1.1l-2.4 8.8c-.3 1.3-.7 2.7-.9 4.2-.2.9-.3 1.8-.5 2.8 0-2.2-.1-4.3-.2-6.4l-.7-9.4a.1.1 0 0 0 -.1-.1h-3c-.1 0-.1 0-.1.1l-6.3 23.6v.1l.1.1h3.1a.1.1 0 0 0 .1-.1l2.6-10.3a3.09 3.09 0 0 0 .2-.8 1.27 1.27 0 0 0 .1-.6l.6-2.9.3-1.6a20.83 20.83 0 0 0 0 2.5c0 1 .1 2.1.1 3l.7 10.6a.1.1 0 0 0 .1.1h3c.1 0 .1 0 .1-.1z" fill="#40444e"/><path d="m126.8 51.3-.1-.1h-2.7c-.1 0-.1 0-.1.1-.5 2-1.4 3-2.5 3a1.14 1.14 0 0 1 -.8-.3c-.5-.6-.4-2.2.2-4.5h6.6c.1 0 .1 0 .1-.1l.1-.4c1-3.6 1-6.1-.1-7.4a3.17 3.17 0 0 0 -2.6-1.1 5.44 5.44 0 0 0 -4.3 2.1 18.57 18.57 0 0 0 -2.9 6.3 21.32 21.32 0 0 0 -.7 3.7 7.05 7.05 0 0 0 .2 2.6 2.29 2.29 0 0 0 1.2 1.5 4.06 4.06 0 0 0 2.1.5c2.9 0 5-1.9 6.2-5.7.2-.2.2-.2.1-.2zm-2.6-8.1a.81.81 0 0 1 .9.8 10.31 10.31 0 0 1 -.3 3.1h-3.4a10.18 10.18 0 0 1 1.4-3.1 1.87 1.87 0 0 1 1.4-.8z" fill="#40444e"/><path d="m135.6 49.8a4.07 4.07 0 0 0 -.6-1.1 6 6 0 0 0 -1.1-1.2c-1-1-1.5-1.9-1.3-2.6a4.88 4.88 0 0 0 .3-.7c.2-.2.3-.4.5-.5a1.61 1.61 0 0 1 .7-.4 1.7 1.7 0 0 1 .7-.1 3 3 0 0 1 2 .8s.1.1.1 0a.1.1 0 0 0 .1-.1l.7-2.7c0-.1 0-.1-.1-.1a4.3 4.3 0 0 0 -2.5-.7 5.5 5.5 0 0 0 -3.5 1.2 6.44 6.44 0 0 0 -2.1 3.2 3.56 3.56 0 0 0 0 2.5 8.6 8.6 0 0 0 1.9 2.5 5 5 0 0 1 .7.8 2.09 2.09 0 0 1 .4.6 1.63 1.63 0 0 1 0 1.2 2.21 2.21 0 0 1 -2.4 1.9 3.24 3.24 0 0 1 -2.1-.9s-.1-.1-.1 0a.1.1 0 0 0 -.1.1l-.8 2.8c0 .1 0 .1.1.1a4.58 4.58 0 0 0 2.4.8 5.41 5.41 0 0 0 3.7-1.3 6.41 6.41 0 0 0 2.2-3.5 3.48 3.48 0 0 0 .2-2.6z" fill="#40444e"/><path d="m142.3 38.4a2.45 2.45 0 0 0 1.6-.6 2.52 2.52 0 0 0 1-1.5 1.55 1.55 0 0 0 -.2-1.5 1.61 1.61 0 0 0 -1.3-.6 3.19 3.19 0 0 0 -1.7.6 2.52 2.52 0 0 0 -1 1.5 1.55 1.55 0 0 0 .2 1.5 1.68 1.68 0 0 0 1.4.6z" fill="#40444e"/><path d="m143.3 41-.1-.1h-2.9c-.1 0-.1 0-.1.1l-4.2 15.8v.1l.1.1h2.9c.1 0 .1 0 .1-.1l4.2-15.8z" fill="#40444e"/><path d="m154.7 40.8-.1-.1h-2.9c-.1 0-.1 0-.1.1l-.4 1.4a2.34 2.34 0 0 0 -2.3-1.7 4.32 4.32 0 0 0 -3.5 2 17.75 17.75 0 0 0 -2.5 6.1 16.76 16.76 0 0 0 -.8 6.4 2.33 2.33 0 0 0 2.5 2.1 3.45 3.45 0 0 0 1.8-.5 8 8 0 0 0 1.4-1.3l-.4 1.5v.1l.1.1h2.9c.1 0 .1 0 .1-.1l4.2-15.8zm-5.2 7.9a14.73 14.73 0 0 1 -1.6 4.2 2.13 2.13 0 0 1 -1.7 1.2c-.7 0-1-.4-1-1.1a13 13 0 0 1 .8-4.3 13 13 0 0 1 1.6-4.2 2.13 2.13 0 0 1 1.7-1.2c.6 0 .9.4 1 1.2a19.39 19.39 0 0 1 -.8 4.2z" fill="#40444e"/><path d="m41.3 36.5-16.6 7.9 16.6 12.7z" fill="#00aeef"/><path d="m50.1 24.1-8.8 4.2v28.8z" fill="#40444e"/><g fill="#fff"><path d="m202.45 37.71a6.14 6.14 0 0 1 -3.15.84 5 5 0 0 1 -3.83-1.55 5.83 5.83 0 0 1 -1.4-4.11 5.76 5.76 0 0 1 1.45-4.09 5.07 5.07 0 0 1 3.9-1.55 5.53 5.53 0 0 1 2.87.71l-.38 2.43a3.75 3.75 0 0 0 -2.35-.89 2.52 2.52 0 0 0 -2 .91 3.72 3.72 0 0 0 -.76 2.47 3.66 3.66 0 0 0 .78 2.47 2.59 2.59 0 0 0 2.08.91 4.68 4.68 0 0 0 2.47-.84z"/><path d="m203.15 38.36 3.92-10.94h3l3.75 10.58-2.73.44-.81-2.36h-3.75l-.73 2.26zm5.26-8.16-1.23 3.8h2.44z"/><path d="m223.61 38-2.86.45-2.38-3.84h-.68v3.74h-2.69v-10.88h3.81a4.75 4.75 0 0 1 3.08.88 3.09 3.09 0 0 1 1.11 2.56 3.11 3.11 0 0 1 -2.06 3.09zm-3.27-6.94a1.47 1.47 0 0 0 -.46-1.17 2 2 0 0 0 -1.33-.4h-.87v3.18h.84a2 2 0 0 0 1.35-.42 1.51 1.51 0 0 0 .47-1.18z"/><path d="m227.48 38.36h-2.69v-10.89h2.69z"/><path d="m242 38.36h-2.7v-4.42h-3.77v4.42h-2.7v-10.89h2.7v4.11h3.77v-4.11h2.7z"/><path d="m253.35 30a6.55 6.55 0 0 1 .63 2.94 6.64 6.64 0 0 1 -.64 3 4.76 4.76 0 0 1 -1.82 2 5.35 5.35 0 0 1 -2.76.71 4.85 4.85 0 0 1 -3.76-1.65 5.83 5.83 0 0 1 -1.43-4.09 5.85 5.85 0 0 1 1.43-4.1 4.87 4.87 0 0 1 3.78-1.56 5.25 5.25 0 0 1 2.74.71 4.71 4.71 0 0 1 1.83 2.04zm-2.74 5.55a4.47 4.47 0 0 0 .66-2.59 4.45 4.45 0 0 0 -.66-2.59 2.24 2.24 0 0 0 -3.66 0 4.36 4.36 0 0 0 -.67 2.58 4.36 4.36 0 0 0 .67 2.58 2.23 2.23 0 0 0 3.66 0z"/><path d="m262.83 35.07a3.66 3.66 0 0 1 -.3 1.53 2.71 2.71 0 0 1 -.84 1.07 3.71 3.71 0 0 1 -1.23.6 5.34 5.34 0 0 1 -1.53.21 8.89 8.89 0 0 1 -3.8-.82l.4-2.3a7.41 7.41 0 0 0 3.45 1 1.62 1.62 0 0 0 .95-.26.83.83 0 0 0 .36-.72.93.93 0 0 0 -.36-.76 5.73 5.73 0 0 0 -1.49-.73 11 11 0 0 1 -1.41-.63 4 4 0 0 1 -1-.68 2.26 2.26 0 0 1 -.58-.87 3.64 3.64 0 0 1 -.17-1.16 3.11 3.11 0 0 1 .5-1.76 3.07 3.07 0 0 1 1.34-1.1 4.69 4.69 0 0 1 1.89-.36 7.6 7.6 0 0 1 1.75.18 7.43 7.43 0 0 1 1.53.55l-.42 2.27a5.65 5.65 0 0 0 -2.83-.88 1.48 1.48 0 0 0 -.91.23.72.72 0 0 0 -.31.62.87.87 0 0 0 .32.69 5.88 5.88 0 0 0 1.34.65 7.31 7.31 0 0 1 2.57 1.41 2.75 2.75 0 0 1 .78 2.02z"/><path d="m272.69 29.76h-3.21v8.6h-2.71v-8.6h-3.08v-2.29h8.61z"/><path d="m276.66 38.36h-2.66v-10.89h2.7z"/><path d="m287.84 38.36h-2.33l-4.29-6.52v6.52h-2.51v-10.89h2.62l4 6.09v-6.09h2.51z"/><path d="m298.77 37.41a7.13 7.13 0 0 1 -4 1.15 5.6 5.6 0 0 1 -2.91-.71 4.49 4.49 0 0 1 -1.84-2 6.72 6.72 0 0 1 -.61-3 6.44 6.44 0 0 1 .65-3 4.78 4.78 0 0 1 1.94-1.85 5.76 5.76 0 0 1 2.89-.71 6.68 6.68 0 0 1 3.33.81l-.36 2.35a5.36 5.36 0 0 0 -2.9-.93 2.48 2.48 0 0 0 -2.08.92 4 4 0 0 0 -.71 2.5 4.12 4.12 0 0 0 .72 2.54 2.51 2.51 0 0 0 2.1.95 3.19 3.19 0 0 0 1.47-.35v-1.97h-1.9l-.31-2h4.56z"/><path d="m202.78 54-4.43 7.76v4.51h-3v-4.5l-4.26-7.47 3.24-.44 2.67 5.08 2.58-5z"/><path d="m203 66.25 4.41-12.32h3.34l4.27 11.95-3.08.49-.91-2.66h-4.23l-.8 2.54zm5.92-9.2-1.39 4.28h2.76z"/><path d="m226.69 66.25h-2.63l-4.83-7.35v7.35h-2.84v-12.25h3l4.51 6.86v-6.86h2.83z"/><path d="m239 65.18a8 8 0 0 1 -4.48 1.31 6.37 6.37 0 0 1 -3.29-.81 5.1 5.1 0 0 1 -2.07-2.22 7.59 7.59 0 0 1 -.69-3.33 7.27 7.27 0 0 1 .74-3.34 5.27 5.27 0 0 1 2.12-2.24 6.36 6.36 0 0 1 3.26-.8 7.55 7.55 0 0 1 3.75.91l-.41 2.65a6 6 0 0 0 -3.27-1.05 2.78 2.78 0 0 0 -2.35 1 4.51 4.51 0 0 0 -.8 2.81 4.56 4.56 0 0 0 .82 2.86 2.8 2.8 0 0 0 2.38 1.07 3.46 3.46 0 0 0 1.65-.39v-2.14h-2.14l-.35-2.26h5.13z"/><path d="m254.23 56.56h-3.61v9.69h-3.06v-9.69h-3.47v-2.56h9.71z"/><path d="m266.15 56.77a8 8 0 0 1 0 6.65 5.37 5.37 0 0 1 -2.06 2.26 5.87 5.87 0 0 1 -3.1.81 5.47 5.47 0 0 1 -4.24-1.76 6.54 6.54 0 0 1 -1.6-4.6 6.62 6.62 0 0 1 1.61-4.63 5.49 5.49 0 0 1 4.24-1.75 5.92 5.92 0 0 1 3.09.79 5.19 5.19 0 0 1 2.06 2.23zm-3.08 6.23a6.11 6.11 0 0 0 0-5.83 2.53 2.53 0 0 0 -4.13 0 6 6 0 0 0 0 5.82 2.52 2.52 0 0 0 4.13 0z"/><path d="m277.43 58a3.78 3.78 0 0 1 -1.33 3.12 5.58 5.58 0 0 1 -3.62 1.08h-.78v4.07h-3v-12.27h3.95a5.55 5.55 0 0 1 3.56 1 3.62 3.62 0 0 1 1.22 3zm-2.95.06c0-1.18-.68-1.77-2.05-1.77h-.76v3.62h.71c1.4-.02 2.1-.64 2.1-1.91z"/><path d="m282.6 61.18-.05.59-1.76.41-.2-2.7.55-.19a5.29 5.29 0 0 0 1.83-.81 1.33 1.33 0 0 0 .53-1.09 1 1 0 0 0 -.39-.86 1.74 1.74 0 0 0 -1.12-.31 5.92 5.92 0 0 0 -3.36 1.26l-.37-2.48a7.12 7.12 0 0 1 4.12-1.25 4.38 4.38 0 0 1 2.93.89 3.16 3.16 0 0 1 1 2.52 3.39 3.39 0 0 1 -.92 2.46 6.89 6.89 0 0 1 -2.79 1.56zm.41 5.07h-2.88v-3.06h2.87z"/><path d="m337.52 26.77a4.09 4.09 0 0 1 -1.65 3.53 7.74 7.74 0 0 1 -4.62 1.2h-5.49v-16.38h5.58a6.65 6.65 0 0 1 4.17 1.11 3.76 3.76 0 0 1 1.41 3.14 3.57 3.57 0 0 1 -2.37 3.46 3.82 3.82 0 0 1 2.97 3.94zm-4.23-6.95c0-1.18-.75-1.78-2.23-1.78h-1.45v3.7h1.39a2.58 2.58 0 0 0 1.72-.51 1.75 1.75 0 0 0 .57-1.41zm.4 6.67c0-1.42-.88-2.13-2.63-2.13h-1.45v4.22h1.5a3.06 3.06 0 0 0 1.91-.53 1.85 1.85 0 0 0 .67-1.56z"/><path d="m350.25 31.5h-10.42v-16.38h10.17v3.28h-6.22v3.09h4.75l.52 3.24h-5.27v3.47h6.43z"/><path d="m362.19 31.5h-9.64v-16.38h4.05v12.88h5z"/><path d="m368.27 31.5h-4v-16.38h4z"/><path d="m390.13 31.5h-4.08v-6.64h-5.68v6.64h-4.05v-16.38h4.05v6.19h5.68v-6.19h4.08z"/><path d="m407.18 18.85a9.92 9.92 0 0 1 .95 4.43 9.88 9.88 0 0 1 -1 4.45 7.13 7.13 0 0 1 -2.74 3 8 8 0 0 1 -4.15 1.07 7.3 7.3 0 0 1 -5.65-2.34 8.77 8.77 0 0 1 -2.13-6.14 8.78 8.78 0 0 1 2.14-6.17 7.31 7.31 0 0 1 5.69-2.35 8 8 0 0 1 4.12 1.06 7 7 0 0 1 2.77 2.99zm-4.12 8.35a6.73 6.73 0 0 0 1-3.89 6.68 6.68 0 0 0 -1-3.89 3.14 3.14 0 0 0 -2.75-1.42 3.19 3.19 0 0 0 -2.76 1.42 6.73 6.73 0 0 0 -1 3.89 6.71 6.71 0 0 0 1 3.88 3.36 3.36 0 0 0 5.51 0z"/><path d="m421.45 26.56a5.55 5.55 0 0 1 -.46 2.3 4 4 0 0 1 -1.26 1.6 5.83 5.83 0 0 1 -1.85.92 8.31 8.31 0 0 1 -2.3.31 13.44 13.44 0 0 1 -5.71-1.23l.59-3.47a11.11 11.11 0 0 0 5.19 1.52 2.45 2.45 0 0 0 1.43-.38 1.26 1.26 0 0 0 .54-1.09 1.43 1.43 0 0 0 -.53-1.15 9.14 9.14 0 0 0 -2.24-1.09 21.21 21.21 0 0 1 -2.13-.95 6.41 6.41 0 0 1 -1.44-1 3.21 3.21 0 0 1 -.87-1.31 5.12 5.12 0 0 1 -.26-1.75 4.49 4.49 0 0 1 2.77-4.3 7.07 7.07 0 0 1 2.83-.54 10.38 10.38 0 0 1 4.94 1.1l-.62 3.42a8.59 8.59 0 0 0 -4.27-1.34 2.27 2.27 0 0 0 -1.36.35 1.12 1.12 0 0 0 -.47.94 1.24 1.24 0 0 0 .49 1 8.34 8.34 0 0 0 2 1 10.84 10.84 0 0 1 3.87 2.12 4.09 4.09 0 0 1 1.12 3.02z"/><path d="m436.28 18.57h-4.82v12.93h-4.08v-12.93h-4.64v-3.45h13z"/><path d="m442.25 31.5h-4.06v-16.38h4.06z"/><path d="m459.08 31.5h-3.52l-6.45-9.8v9.8h-3.78v-16.38h3.94l6 9.16v-9.16h3.78z"/><path d="m475.51 30.07a10.71 10.71 0 0 1 -6 1.74 8.53 8.53 0 0 1 -4.39-1.07 6.83 6.83 0 0 1 -2.76-3 10.15 10.15 0 0 1 -.92-4.44 9.72 9.72 0 0 1 1-4.45 7.21 7.21 0 0 1 2.84-3 8.54 8.54 0 0 1 4.34-1.07 10.1 10.1 0 0 1 5 1.22l-.55 3.53a8.06 8.06 0 0 0 -4.35-1.4 3.72 3.72 0 0 0 -3.14 1.39 6 6 0 0 0 -1.07 3.76 6 6 0 0 0 1.1 3.81 3.72 3.72 0 0 0 3.15 1.44 4.92 4.92 0 0 0 2.24-.53v-2.89h-2.86l-.47-3h6.86z"/><path d="m482.36 27.42-3 7.59-2.13-.5 1-7.09z"/><path d="m339.22 58.57a10.71 10.71 0 0 1 -6 1.74 8.53 8.53 0 0 1 -4.39-1.07 6.83 6.83 0 0 1 -2.76-3 10.15 10.15 0 0 1 -.92-4.44 9.72 9.72 0 0 1 1-4.45 7.15 7.15 0 0 1 2.84-3 8.54 8.54 0 0 1 4.34-1.07 10.1 10.1 0 0 1 5 1.22l-.55 3.53a8.06 8.06 0 0 0 -4.35-1.4 3.72 3.72 0 0 0 -3.14 1.39 6 6 0 0 0 -1.07 3.76 6.09 6.09 0 0 0 1.09 3.81 3.74 3.74 0 0 0 3.16 1.44 4.85 4.85 0 0 0 2.2-.52v-2.9h-2.85l-.47-3h6.86z"/><path d="m354.88 59.48-4.3.68-3.58-5.78h-1v5.62h-4v-16.38h5.73a7.22 7.22 0 0 1 4.58 1.38 4.68 4.68 0 0 1 1.69 3.79 4.7 4.7 0 0 1 -3.08 4.66zm-4.88-10.48a2.19 2.19 0 0 0 -.69-1.75 2.93 2.93 0 0 0 -2-.61h-1.31v4.78h1.27a3 3 0 0 0 2-.63 2.25 2.25 0 0 0 .73-1.79z"/><path d="m355.37 60 5.89-16.45h4.46l5.69 16-4.1.66-1.22-3.56h-5.64l-1.09 3.35zm7.91-12.27-1.86 5.7h3.68z"/><path d="m385.84 47.07h-4.84v12.93h-4.08v-12.93h-4.63v-3.45h12.95z"/><path d="m391.81 60h-4.06v-16.38h4.06z"/><path d="m405.81 55.06a5.55 5.55 0 0 1 -.45 2.3 4 4 0 0 1 -1.26 1.64 5.78 5.78 0 0 1 -1.86.92 8.23 8.23 0 0 1 -2.29.31 13.52 13.52 0 0 1 -5.72-1.23l.59-3.47a11.18 11.18 0 0 0 5.18 1.47 2.47 2.47 0 0 0 1.43-.38 1.26 1.26 0 0 0 .54-1.09 1.41 1.41 0 0 0 -.54-1.15 9 9 0 0 0 -2.23-1.09 20.52 20.52 0 0 1 -2.14-.95 6.58 6.58 0 0 1 -1.43-1 3.34 3.34 0 0 1 -.88-1.31 5.38 5.38 0 0 1 -.26-1.75 4.53 4.53 0 0 1 .76-2.64 4.65 4.65 0 0 1 2-1.66 7.12 7.12 0 0 1 2.84-.54 10.46 10.46 0 0 1 4.94 1.1l-.6 3.46a8.53 8.53 0 0 0 -4.26-1.34 2.25 2.25 0 0 0 -1.36.35 1.1 1.1 0 0 0 -.47.94 1.26 1.26 0 0 0 .48 1 8.69 8.69 0 0 0 2 1 10.84 10.84 0 0 1 3.88 2.05 4.09 4.09 0 0 1 1.11 3.06z"/><path d="m426.73 48.46a10.1 10.1 0 0 1 0 6.66 7.38 7.38 0 0 1 -1.64 2.6 7.17 7.17 0 0 1 -2.69 1.68 10.58 10.58 0 0 1 -3.67.6h-5.73v-16.38h5.65a11.18 11.18 0 0 1 3.75.59 7.45 7.45 0 0 1 2.73 1.67 7.18 7.18 0 0 1 1.6 2.58zm-3.52 3.35a5.13 5.13 0 0 0 -1.27-3.81 4.67 4.67 0 0 0 -3.44-1.26h-1.5v10.11h1.47a4.71 4.71 0 0 0 3.53-1.24 5.22 5.22 0 0 0 1.21-3.8z"/><path d="m443.79 47.35a10.8 10.8 0 0 1 0 8.88 7.13 7.13 0 0 1 -2.74 3 8 8 0 0 1 -4.15 1.07 7.3 7.3 0 0 1 -5.66-2.3 8.77 8.77 0 0 1 -2.13-6.14 8.78 8.78 0 0 1 2.14-6.17 7.33 7.33 0 0 1 5.69-2.35 8 8 0 0 1 4.12 1.06 7 7 0 0 1 2.73 2.95zm-4.12 8.35a6.73 6.73 0 0 0 1-3.89 6.76 6.76 0 0 0 -1-3.89 3.38 3.38 0 0 0 -5.51 0 6.65 6.65 0 0 0 -1 3.89 6.64 6.64 0 0 0 1 3.88 3.35 3.35 0 0 0 5.5 0z"/><path d="m465.78 60h-4.14l-.71-11-3.08 11h-3.85l-3.08-11-.72 11h-3.54l1.19-16.38h5.25l3.18 11.28 3.2-11.28h5.1z"/><path d="m467.1 60 5.9-16.45h4.47l5.69 16-4.11.66-1.21-3.56h-5.65l-1.11 3.35zm7.9-12.27-1.85 5.7h3.67z"/><path d="m489.08 60h-4.08v-16.38h4.05z"/><path d="m505.91 60h-3.51l-6.46-9.8v9.8h-3.78v-16.38h3.94l6 9.16v-9.16h3.78z"/><path d="m528.32 59.62-4 .52-1.4-1.59a6.7 6.7 0 0 1 -4.58 1.74 5.77 5.77 0 0 1 -3.88-1.24 4.21 4.21 0 0 1 -1.46-3.37 5.23 5.23 0 0 1 3.19-4.79 6.38 6.38 0 0 1 -1-1.69 5.13 5.13 0 0 1 -.29-1.77 3.79 3.79 0 0 1 1.28-2.94 5 5 0 0 1 3.54-1.18 9.63 9.63 0 0 1 4.41 1l-.54 3.3a7.76 7.76 0 0 0 -3.47-1.13 1.58 1.58 0 0 0 -1.09.34 1.13 1.13 0 0 0 -.38.88 1.71 1.71 0 0 0 .23.83 5.84 5.84 0 0 0 .75 1l3.33 3.87a15.35 15.35 0 0 0 .7-3.19l3 .67a14.17 14.17 0 0 1 -1.59 5zm-9.49-2.23a3.4 3.4 0 0 0 2.28-.9l-3.11-3.56a3 3 0 0 0 -1.34 2.42 2 2 0 0 0 .59 1.48 2.21 2.21 0 0 0 1.58.56z"/><path d="m545.43 55.06a5.55 5.55 0 0 1 -.45 2.3 4 4 0 0 1 -1.27 1.6 5.83 5.83 0 0 1 -1.85.92 8.31 8.31 0 0 1 -2.3.31 13.47 13.47 0 0 1 -5.71-1.19l.59-3.47a11.18 11.18 0 0 0 5.19 1.47 2.48 2.48 0 0 0 1.44-.38 1.28 1.28 0 0 0 .53-1.09 1.4 1.4 0 0 0 -.53-1.15 9 9 0 0 0 -2.24-1.09 21.21 21.21 0 0 1 -2.13-.95 6.13 6.13 0 0 1 -1.43-1 3.23 3.23 0 0 1 -.88-1.31 5.38 5.38 0 0 1 -.26-1.75 4.53 4.53 0 0 1 2.77-4.28 7.09 7.09 0 0 1 2.84-.54 10.46 10.46 0 0 1 4.94 1.1l-.63 3.44a8.53 8.53 0 0 0 -4.26-1.34 2.31 2.31 0 0 0 -1.37.35 1.12 1.12 0 0 0 -.47.94 1.27 1.27 0 0 0 .49 1 8.47 8.47 0 0 0 2 1 10.94 10.94 0 0 1 3.88 2.05 4.09 4.09 0 0 1 1.11 3.06z"/><path d="m558.55 55.06a5.55 5.55 0 0 1 -.45 2.3 4.13 4.13 0 0 1 -1.27 1.6 5.83 5.83 0 0 1 -1.85.92 8.31 8.31 0 0 1 -2.3.31 13.47 13.47 0 0 1 -5.68-1.19l.59-3.47a11.18 11.18 0 0 0 5.16 1.47 2.43 2.43 0 0 0 1.43-.38 1.26 1.26 0 0 0 .54-1.09 1.4 1.4 0 0 0 -.53-1.15 9.14 9.14 0 0 0 -2.19-1.08 21.21 21.21 0 0 1 -2.13-.95 6.41 6.41 0 0 1 -1.44-1 3.21 3.21 0 0 1 -.87-1.31 5.38 5.38 0 0 1 -.26-1.75 4.53 4.53 0 0 1 2.7-4.29 7.09 7.09 0 0 1 2.84-.54 11.53 11.53 0 0 1 2.64.27 11.31 11.31 0 0 1 2.29.83l-.6 3.44a8.53 8.53 0 0 0 -4.27-1.34 2.3 2.3 0 0 0 -1.36.35 1.12 1.12 0 0 0 -.47.94 1.27 1.27 0 0 0 .49 1 8.34 8.34 0 0 0 2 1 11 11 0 0 1 3.88 2.05 4.09 4.09 0 0 1 1.11 3.06z"/><path d="m570.39 60h-9.64v-16.38h4.06v12.87h5z"/><path d="m329.1 77.67h-4.05v-7.34h1.41v6.08h2.44z"/><path d="m334.49 77.67h-4.37v-7.34h4.26v1.19h-2.87v1.75h2.21l.2 1.19h-2.41v2h3z"/><path d="m340.52 75.53a1.87 1.87 0 0 1 -.72 1.6 3.35 3.35 0 0 1 -2 .54h-2.1v-7.34h2.13a2.84 2.84 0 0 1 1.82.5 1.73 1.73 0 0 1 .62 1.4 1.61 1.61 0 0 1 -.28.94 1.78 1.78 0 0 1 -.79.59 1.72 1.72 0 0 1 1.32 1.77zm-1.6-3.18c0-.63-.4-.94-1.2-.94h-.72v1.94h.65a1.5 1.5 0 0 0 .94-.26.9.9 0 0 0 .33-.74zm.25 3.14a1 1 0 0 0 -.36-.85 1.73 1.73 0 0 0 -1.07-.29h-.74v2.24h.75a1.68 1.68 0 0 0 1.05-.28 1 1 0 0 0 .37-.82z"/><path d="m343.17 77.67h-1.41v-7.34h1.41z"/><path d="m350.7 77.67h-1.41v-3.18h-3.11v3.18h-1.42v-7.34h1.42v2.9h3.11v-2.9h1.41z"/><path d="m360.46 77.67h-1.41v-3.18h-3.11v3.18h-1.41v-7.34h1.41v2.9h3.11v-2.9h1.41z"/><path d="m366.38 77.67h-4.38v-7.34h4.26v1.19h-2.87v1.75h2.21l.19 1.19h-2.4v2h3z"/><path d="m375.72 77.67h-1.4l-.39-5.41-1.84 5.43h-1.26l-1.83-5.43-.38 5.41h-1.26l.56-7.34h1.79l1.86 5.54 1.85-5.54h1.75z"/><path d="m376.51 77.67 2.75-7.37h1.5l2.69 7.18-1.42.26-.7-1.93h-2.77l-.64 1.86zm3.49-5.85-1 2.84h2z"/><path d="m389.88 71.55h-2.29v6.12h-1.4v-6.12h-2.19v-1.22h5.7z"/><path d="m392.31 76.11-1.21 3.06-.74-.19.49-2.87z"/><path d="m399.78 77.67h-4v-7.34h1.41v6.08h2.45z"/><path d="m405.17 77.67h-4.36v-7.34h4.26v1.19h-2.87v1.75h2.21l.19 1.19h-2.4v2h3z"/><path d="m411.21 75.53a1.87 1.87 0 0 1 -.72 1.6 3.39 3.39 0 0 1 -2 .54h-2.11v-7.34h2.14a2.86 2.86 0 0 1 1.82.5 1.72 1.72 0 0 1 .61 1.4 1.54 1.54 0 0 1 -.28.94 1.8 1.8 0 0 1 -.78.59 1.73 1.73 0 0 1 1.32 1.77zm-1.61-3.18c0-.63-.4-.94-1.2-.94h-.71v1.94h.65a1.48 1.48 0 0 0 .94-.26.88.88 0 0 0 .32-.74zm.26 3.14a1 1 0 0 0 -.37-.85 1.71 1.71 0 0 0 -1.07-.29h-.73v2.24h.76a1.65 1.65 0 0 0 1-.28 1 1 0 0 0 .41-.82z"/><path d="m413.85 77.67h-1.41v-7.34h1.41z"/><path d="m421.38 77.67h-1.38v-3.18h-3.11v3.18h-1.41v-7.34h1.41v2.9h3.11v-2.9h1.41z"/><path d="m430.55 77.17a3.87 3.87 0 0 1 -2.16.62 3.24 3.24 0 0 1 -2.53-1 3.92 3.92 0 0 1 -.94-2.75 4.39 4.39 0 0 1 .43-2 3.08 3.08 0 0 1 1.22-1.33 3.55 3.55 0 0 1 1.86-.48 3.64 3.64 0 0 1 2 .54l-.21 1.33a2.8 2.8 0 0 0 -1.75-.65 1.92 1.92 0 0 0 -1.56.69 3.43 3.43 0 0 0 0 3.77 2 2 0 0 0 1.57.69 3.24 3.24 0 0 0 1.86-.64z"/><path d="m436.12 77.67h-4.37v-7.34h4.25v1.19h-2.87v1.75h2.22l.19 1.19h-2.41v2h3z"/><path d="m442.12 72.58a2.13 2.13 0 0 1 -.75 1.77 3.13 3.13 0 0 1 -2.05.62h-.63v2.7h-1.4v-7.34h2.14a3 3 0 0 1 2 .58 2 2 0 0 1 .69 1.67zm-1.38 0a1 1 0 0 0 -.35-.87 1.58 1.58 0 0 0 -1-.29h-.67v2.37h.62c.93.04 1.4-.37 1.4-1.17z"/><path d="m442.64 77.67 2.75-7.37h1.5l2.69 7.18-1.41.26-.7-1.93h-2.78l-.64 1.86zm3.45-5.85-1 2.84h2z"/><path d="m456 71.55h-2.28v6.12h-1.41v-6.12h-2.21v-1.22h5.7z"/><path d="m628.87 23.91h-2v-3.27h-2.79v3.27h-2v-8.06h2v3h2.79v-3h2z"/><path d="m629.75 23.91 2.89-8.1h2.2l2.8 7.85-2 .33-.6-1.75h-2.77l-.54 1.67zm3.89-6-.92 2.8h1.81z"/><path d="m644.89 23.65-2.11.34-1.78-2.85h-.5v2.77h-2v-8.06h2.82a3.52 3.52 0 0 1 2.28.65 2.28 2.28 0 0 1 .81 1.89 2.3 2.3 0 0 1 -1.52 2.29zm-2.41-5.14a1.1 1.1 0 0 0 -.34-.86 1.46 1.46 0 0 0 -1-.3h-.65v2.35h.62a1.43 1.43 0 0 0 1-.31 1.09 1.09 0 0 0 .37-.88z"/><path d="m647.76 23.91h-2v-8.06h2z"/><path d="m653.77 23.91h-2v-8.06h2z"/><path d="m662.05 23.91h-1.73l-3.17-4.83v4.83h-1.86v-8.06h1.94l3 4.5v-4.5h1.86z"/><path d="m665.56 23.91h-2v-8.06h2z"/><path d="m676.29 18.23a4.46 4.46 0 0 1 .28 1.63 4.84 4.84 0 0 1 -.28 1.65 3.64 3.64 0 0 1 -.81 1.27 3.42 3.42 0 0 1 -1.32.83 5.17 5.17 0 0 1 -1.81.3h-2.83v-8.06h2.78a5.36 5.36 0 0 1 1.85.29 3.37 3.37 0 0 1 2.14 2.09zm-1.73 1.64a2.48 2.48 0 0 0 -.63-1.85 2.3 2.3 0 0 0 -1.69-.62h-.72v5h.72a2.32 2.32 0 0 0 1.71-.61 2.56 2.56 0 0 0 .61-1.92z"/><path d="m679.8 23.91h-2v-8.06h2z"/><path d="m686.69 21.48a2.71 2.71 0 0 1 -.22 1.13 2.12 2.12 0 0 1 -.62.79 2.82 2.82 0 0 1 -.92.45 4 4 0 0 1 -1.13.15 6.55 6.55 0 0 1 -2.81-.61l.29-1.7a5.47 5.47 0 0 0 2.56.75 1.21 1.21 0 0 0 .7-.19.63.63 0 0 0 .27-.54.68.68 0 0 0 -.27-.56 4 4 0 0 0 -1.1-.54 9.28 9.28 0 0 1 -1.05-.47 3 3 0 0 1 -.7-.5 1.51 1.51 0 0 1 -.43-.65 2.47 2.47 0 0 1 -.13-.86 2.26 2.26 0 0 1 .37-1.3 2.31 2.31 0 0 1 1-.81 3.46 3.46 0 0 1 1.4-.27 5.6 5.6 0 0 1 1.3.13 5.94 5.94 0 0 1 1.13.41l-.33 1.71a4.27 4.27 0 0 0 -2.1-.65 1.16 1.16 0 0 0 -.67.17.55.55 0 0 0 -.23.48.63.63 0 0 0 .24.51 4.08 4.08 0 0 0 1 .48 5.38 5.38 0 0 1 1.9 1 2 2 0 0 1 .55 1.49z"/><path d="m694.64 23.66-2.18.33-2.69-3.83v3.75h-2v-8.06h2v3.44l2.49-3.44h2.32l-2.9 3.76z"/><path d="m702.31 17.68a4.89 4.89 0 0 1 .46 2.18 4.77 4.77 0 0 1 -.47 2.19 3.46 3.46 0 0 1 -1.3 1.48 3.83 3.83 0 0 1 -2 .53 3.58 3.58 0 0 1 -2.78-1.15 4.32 4.32 0 0 1 -1-3 4.34 4.34 0 0 1 1-3 3.63 3.63 0 0 1 2.8-1.16 4 4 0 0 1 2 .52 3.43 3.43 0 0 1 1.29 1.41zm-2 4.11a3.37 3.37 0 0 0 .49-1.92 3.33 3.33 0 0 0 -.49-1.91 1.54 1.54 0 0 0 -1.36-.7 1.58 1.58 0 0 0 -1.35.7 3.28 3.28 0 0 0 -.5 1.91 3.29 3.29 0 0 0 .5 1.92 1.66 1.66 0 0 0 2.71 0z"/><path d="m710.72 23.91h-1.72l-3.17-4.83v4.83h-1.83v-8.06h1.94l3 4.5v-4.5h1.86z"/><path d="m653 78.43a2.34 2.34 0 0 1 -.35 1.28 2.07 2.07 0 0 1 -.94.79 3.24 3.24 0 0 1 -1.36.26 5.87 5.87 0 0 1 -2.49-.54l.23-1.39a4.51 4.51 0 0 0 2.28.7 1.35 1.35 0 0 0 .86-.25.84.84 0 0 0 .32-.71.91.91 0 0 0 -.28-.69 4.44 4.44 0 0 0 -1.14-.62 9.46 9.46 0 0 1 -1-.47 3 3 0 0 1 -.65-.48 1.51 1.51 0 0 1 -.39-.61 2.34 2.34 0 0 1 -.12-.79 2 2 0 0 1 .71-1.62 2.75 2.75 0 0 1 1.84-.59 4.49 4.49 0 0 1 2.08.48l-.23 1.37a3.34 3.34 0 0 0 -1.86-.61 1.2 1.2 0 0 0 -.82.23.76.76 0 0 0 -.27.61.8.8 0 0 0 .27.62 4.05 4.05 0 0 0 1.08.58 5 5 0 0 1 1.73 1 2 2 0 0 1 .5 1.45z"/><path d="m659 80.67h-4.69v-7.88h4.58v1.28h-3.09v1.93h2.38l.2 1.27h-2.58v2.13h3.2z"/><path d="m664.56 80.67h-4.35v-7.88h1.52v6.54h2.62z"/><path d="m665.07 80.67 2.93-7.91h1.62l2.89 7.72-1.52.27-.75-2.07h-3l-.69 2zm3.7-6.28-1.09 3h2.15z"/><path d="m682.38 80.67h-1.5l-.43-5.81-2 5.84h-1.35l-2-5.84-.4 5.81h-1.35l.6-7.88h1.92l2 5.95 2-5.95h1.88z"/><path d="m683.23 80.67 2.95-7.91h1.62l2.89 7.72-1.52.27-.75-2.07h-3l-.69 2zm3.7-6.28-1.09 3h2.16z"/><path d="m698.13 80.67h-1.25l-3.72-5.42v5.42h-1.4v-7.88h1.43l3.54 5.21v-5.21h1.4z"/><path d="m706.29 72.79-2.85 4.87v3h-1.52v-3l-2.75-4.66 1.57-.25 2 3.55 1.92-3.47z"/><path d="m706.66 80.67 3-7.91h1.61l2.89 7.72-1.52.27-.75-2.07h-3l-.69 2zm3.71-6.28-1.09 3h2.15z"/></g><path d="m641.21 51.37a7.16 7.16 0 0 1 1.55 4.81 8.57 8.57 0 0 1 -1.56 5.15 9.45 9.45 0 0 1 -4.2 3.23 16.27 16.27 0 0 1 -6.13 1.08 20.68 20.68 0 0 1 -10.39-2.5l1-6.07a18 18 0 0 0 8.71 2.33 6.32 6.32 0 0 0 3.69-.95 3.11 3.11 0 0 0 1.33-2.71 3.41 3.41 0 0 0 -1.46-3 8.35 8.35 0 0 0 -4.68-1h-2.65l-.94-5.8h3.36a7.83 7.83 0 0 0 4.34-1 3.12 3.12 0 0 0 1.42-2.71 2.81 2.81 0 0 0 -1.16-2.39 5.65 5.65 0 0 0 -3.44-.84 14 14 0 0 0 -8.09 2.62l-1-5.94a17.81 17.81 0 0 1 10.23-2.9q5.22 0 8.16 2.28a7.27 7.27 0 0 1 3 6 7.26 7.26 0 0 1 -1.46 4.73 9.45 9.45 0 0 1 -4.12 2.76 9.77 9.77 0 0 1 4.49 2.82z" fill="#b8d167"/><path d="m668.93 37.09q3.55 4.3 3.56 12.12t-3.56 12.12a11.74 11.74 0 0 1 -9.56 4.31 11.86 11.86 0 0 1 -9.61-4.31q-3.57-4.3-3.57-12.12t3.57-12.12a11.86 11.86 0 0 1 9.61-4.31 11.74 11.74 0 0 1 9.56 4.31zm-4.17 12.12q0-10.49-5.39-10.49a4.35 4.35 0 0 0 -4.07 2.69 18 18 0 0 0 -1.34 7.8 18 18 0 0 0 1.34 7.79 4.35 4.35 0 0 0 4.07 2.69q5.4.01 5.39-10.48z" fill="#b8d167"/><path d="m691.61 42.29a9.91 9.91 0 0 1 -2.22 6.86 7.17 7.17 0 0 1 -5.59 2.48 7.27 7.27 0 0 1 -5.65-2.46 9.87 9.87 0 0 1 -2.21-6.84 9.88 9.88 0 0 1 2.22-6.84 7.24 7.24 0 0 1 5.64-2.49 7.17 7.17 0 0 1 5.59 2.47 9.8 9.8 0 0 1 2.22 6.82zm-4.91 0a8.65 8.65 0 0 0 -.74-3.95 2.35 2.35 0 0 0 -2.16-1.4q-3 0-3 5.39a8.19 8.19 0 0 0 .78 3.91 2.43 2.43 0 0 0 2.22 1.41 2.33 2.33 0 0 0 2.2-1.39 8.81 8.81 0 0 0 .7-3.97zm.3 23.05-4.16-1 10.19-15.59 10-15.72 4.2.94-10.23 15.7zm27.19-9.26a9.84 9.84 0 0 1 -2.19 6.83 7.27 7.27 0 0 1 -5.62 2.47 7.19 7.19 0 0 1 -5.62-2.44 9.8 9.8 0 0 1 -2.2-6.81 10 10 0 0 1 2.22-6.89 7.19 7.19 0 0 1 5.6-2.48 7.27 7.27 0 0 1 5.62 2.47 9.89 9.89 0 0 1 2.21 6.85zm-4.92 0a8.32 8.32 0 0 0 -.76-3.92 2.42 2.42 0 0 0 -4.4 0 8.79 8.79 0 0 0 -.73 4 8.28 8.28 0 0 0 .77 3.92 2.41 2.41 0 0 0 4.38 0 8.58 8.58 0 0 0 .76-4z" fill="#b8d167"/></svg>